<svg version="1.0" xmlns="http://www.w3.org/2000/svg" width="800.000000" height="800.000000" viewBox="0 0 800.000000 800.000000" preserveAspectRatio="xMidYMid meet">
  <metadata>
    <rdf:RDF xmlns:rdf="http://www.w3.org/1999/02/22-rdf-syntax-ns#" xmlns:rdfs="http://www.w3.org/2000/01/rdf-schema#" xmlns:dc="http://purl.org/dc/elements/1.1/">
      <rdf:Description dc:format="image/svg+xml" dc:Label="1" dc:ContentProducer="001191330110MACRLGPT8B00000" dc:ProduceID="444852890" dc:ReservedCode1="d1r8BAe4CrKbXkHRb8H7WFotu+JgiNDGPEeJ2PlaKPk=" dc:ContentPropagator="001191330110MACRLGPT8B00000" dc:PropagateID="444852890" dc:ReservedCode2="d1r8BAe4CrKbXkHRb8H7WFotu+JgiNDGPEeJ2PlaKPk="/>
    </rdf:RDF>
  </metadata>
  <g transform="translate(0.000000,800.000000) scale(0.100000,-0.100000)" fill="#000000" stroke="none">
    <path d="M3781 5214 c-579 -581 -1051 -1059 -1049 -1064 2 -4 474 -481 1050 -1061 l1047 -1054 89 85 c49 47 89 90 88 97 0 6 -428 442 -951 969 -522 526 -951 962 -953 968 -1 6 100 113 225 238 126 125 558 558 962 962 l735 735 -89 90 c-49 50 -92 91 -95 91 -4 0 -480 -475 -1059 -1056z"/>
  </g>
</svg>