<svg version="1.0" xmlns="http://www.w3.org/2000/svg" width="800.000000" height="800.000000" viewBox="0 0 800.000000 800.000000" preserveAspectRatio="xMidYMid meet">
  <metadata>
    <rdf:RDF xmlns:rdf="http://www.w3.org/1999/02/22-rdf-syntax-ns#" xmlns:rdfs="http://www.w3.org/2000/01/rdf-schema#" xmlns:dc="http://purl.org/dc/elements/1.1/">
      <rdf:Description dc:format="image/svg+xml" dc:Label="1" dc:ContentProducer="001191330110MACRLGPT8B00000" dc:ProduceID="444852850" dc:ReservedCode1="HCzrQ6l8tH/Pxqy0NchXKCxdfMVY0dh+pjWCR9AFW/Q=" dc:ContentPropagator="001191330110MACRLGPT8B00000" dc:PropagateID="444852850" dc:ReservedCode2="HCzrQ6l8tH/Pxqy0NchXKCxdfMVY0dh+pjWCR9AFW/Q="/>
    </rdf:RDF>
  </metadata>
  <g transform="translate(0.000000,800.000000) scale(0.100000,-0.100000)" fill="#000000" stroke="none">
    <path d="M3810 6149 c-77 -24 -140 -90 -161 -171 -18 -66 9 -149 67 -207 24 -24 44 -45 44 -47 0 -2 -17 -4 -37 -4 -89 0 -309 -67 -438 -133 -149 -77 -318 -216 -415 -342 -95 -123 -179 -301 -213 -449 -18 -85 -20 -137 -26 -761 -7 -752 -1 -695 -86 -830 -24 -38 -77 -114 -119 -168 -81 -105 -93 -137 -82 -215 7 -53 45 -106 97 -137 31 -18 57 -20 339 -25 l305 -5 16 -70 c73 -309 297 -537 603 -615 109 -28 283 -28 392 0 232 59 424 211 527 416 33 66 67 167 76 224 l6 45 275 5 c301 5 311 7 363 69 56 67 59 154 7 232 -16 24 -59 82 -95 129 -36 47 -86 127 -113 179 l-47 93 -6 677 c-5 645 -7 680 -27 764 -111 458 -486 813 -952 902 -47 9 -96 18 -108 21 l-24 5 29 22 c45 35 62 59 79 113 54 166 -110 333 -276 283z m307 -713 c312 -85 548 -297 658 -589 50 -134 54 -191 54 -862 1 -668 0 -660 55 -795 26 -63 100 -181 149 -237 l29 -33 -1202 0 -1202 0 49 63 c109 140 160 247 183 389 6 38 10 310 10 688 0 678 -1 664 57 809 82 206 252 385 470 495 206 103 473 131 690 72z m307 -2828 c-54 -187 -203 -331 -395 -381 -197 -51 -429 26 -558 186 -38 48 -98 166 -107 215 l-6 32 540 0 541 0 -15 -52z"/>
  </g>
</svg>