<svg version="1.0" xmlns="http://www.w3.org/2000/svg" width="800.000000" height="800.000000" viewBox="0 0 800.000000 800.000000" preserveAspectRatio="xMidYMid meet">
  <metadata>
    <rdf:RDF xmlns:rdf="http://www.w3.org/1999/02/22-rdf-syntax-ns#" xmlns:rdfs="http://www.w3.org/2000/01/rdf-schema#" xmlns:dc="http://purl.org/dc/elements/1.1/">
      <rdf:Description dc:format="image/svg+xml" dc:Label="1" dc:ContentProducer="001191330110MACRLGPT8B00000" dc:ProduceID="444852946" dc:ReservedCode1="d3dHLbq6982Bhcf4B2xfVYGDYYwk5ls5Q6KSDRrF6uI=" dc:ContentPropagator="001191330110MACRLGPT8B00000" dc:PropagateID="444852946" dc:ReservedCode2="d3dHLbq6982Bhcf4B2xfVYGDYYwk5ls5Q6KSDRrF6uI="/>
    </rdf:RDF>
  </metadata>
  <g transform="translate(0.000000,800.000000) scale(0.100000,-0.100000)" fill="#000000" stroke="none">
    <path d="M2390 6114 c-115 -22 -211 -75 -306 -169 -88 -87 -140 -176 -169 -290 -47 -184 17 -419 153 -567 30 -32 57 -58 61 -58 5 0 20 22 35 50 15 27 45 72 67 100 l40 51 -32 37 c-18 20 -44 61 -58 92 -22 47 -26 69 -26 150 0 82 4 103 26 151 37 79 90 133 167 171 60 30 75 33 157 33 103 0 153 -19 227 -85 l42 -37 63 38 c34 21 85 50 114 64 l52 27 -49 49 c-70 72 -168 135 -254 166 -59 21 -97 27 -180 29 -58 1 -116 0 -130 -2z"/>
    <path d="M5150 6097 c-82 -25 -145 -56 -200 -95 -51 -37 -130 -114 -130 -127 0 -6 33 -29 73 -50 39 -21 87 -48 106 -61 l34 -23 41 35 c22 19 65 47 96 62 47 23 67 27 145 27 78 0 97 -4 147 -28 65 -32 135 -104 168 -174 17 -35 25 -72 28 -133 5 -102 -17 -172 -78 -248 l-38 -49 67 -101 c38 -59 72 -100 81 -99 22 3 125 132 155 195 88 186 85 401 -10 580 -48 91 -102 152 -184 206 -110 74 -186 98 -316 103 -93 3 -121 0 -185 -20z"/>
    <path d="M3730 5749 c-278 -25 -549 -120 -785 -277 -116 -77 -152 -106 -254 -205 -200 -197 -331 -402 -420 -661 -74 -215 -86 -290 -86 -551 0 -204 3 -242 23 -333 66 -295 203 -572 380 -770 l65 -74 -258 -258 -258 -258 71 -66 c38 -37 82 -76 97 -88 l28 -22 25 30 c33 40 474 484 480 484 3 0 46 -26 96 -58 125 -81 191 -117 277 -153 389 -162 809 -181 1214 -53 137 44 320 135 455 228 l75 51 255 -261 c148 -151 260 -259 267 -255 6 3 48 41 92 84 76 75 80 80 66 100 -8 11 -123 130 -256 263 l-241 243 62 72 c174 202 299 456 366 745 26 111 28 134 28 344 1 253 -13 349 -81 544 -96 278 -225 479 -440 687 -285 275 -639 433 -1048 468 -134 12 -159 12 -295 0z m365 -264 c340 -51 625 -199 856 -443 190 -201 313 -436 368 -701 95 -457 -46 -940 -372 -1278 -288 -299 -650 -453 -1062 -453 -467 0 -888 214 -1179 600 -58 76 -172 294 -201 385 -62 188 -87 423 -66 617 58 535 426 1004 934 1192 106 40 236 73 331 86 102 13 286 11 391 -5z"/>
    <path d="M3730 4386 c0 -338 3 -435 13 -438 6 -2 200 -2 430 0 l417 4 0 124 0 124 -310 0 -310 0 0 310 0 310 -120 0 -120 0 0 -434z"/>
  </g>
</svg>