<svg version="1.0" xmlns="http://www.w3.org/2000/svg" width="800.000000" height="800.000000" viewBox="0 0 800.000000 800.000000" preserveAspectRatio="xMidYMid meet">
  <metadata>
    <rdf:RDF xmlns:rdf="http://www.w3.org/1999/02/22-rdf-syntax-ns#" xmlns:rdfs="http://www.w3.org/2000/01/rdf-schema#" xmlns:dc="http://purl.org/dc/elements/1.1/">
      <rdf:Description dc:format="image/svg+xml" dc:Label="1" dc:ContentProducer="001191330110MACRLGPT8B00000" dc:ProduceID="444853453" dc:ReservedCode1="KeqfbtrxrctYJSV18NzCRxZHbjJ4KGE3bHed1Mm3PzA=" dc:ContentPropagator="001191330110MACRLGPT8B00000" dc:PropagateID="444853453" dc:ReservedCode2="KeqfbtrxrctYJSV18NzCRxZHbjJ4KGE3bHed1Mm3PzA="/>
    </rdf:RDF>
  </metadata>
  <g transform="translate(0.000000,800.000000) scale(0.100000,-0.100000)" fill="#000000" stroke="none">
    <path d="M2424 5686 c-28 -13 -64 -40 -79 -59 -58 -77 -55 1 -55 -1624 l0 -1493 -105 0 -105 0 0 -110 0 -110 1920 0 1920 0 0 110 0 110 -105 0 -105 0 -2 1518 -3 1517 -22 42 c-27 51 -82 96 -132 112 -28 8 -448 11 -1557 11 l-1519 0 -51 -24z m3068 -1686 l-2 -1490 -530 0 -530 0 0 443 c0 273 -4 456 -10 479 -14 48 -53 94 -101 118 -35 18 -60 20 -319 20 -261 0 -284 -1 -320 -20 -47 -24 -84 -71 -99 -125 -7 -26 -11 -192 -11 -477 l0 -438 -530 0 -530 0 0 1490 0 1490 1493 0 1492 0 -3 -1490z m-1277 -1065 l0 -425 -212 0 -213 0 0 425 0 425 213 0 212 0 0 -425z"/>
    <path d="M2843 5059 c-68 -20 -96 -107 -52 -162 32 -42 76 -49 277 -45 l184 3 29 33 c42 46 41 107 -2 148 l-30 29 -187 2 c-103 1 -201 -2 -219 -8z"/>
    <path d="M3803 5059 c-68 -20 -96 -107 -52 -162 32 -42 76 -49 277 -45 l184 3 29 33 c40 45 40 99 0 144 l-29 33 -189 2 c-103 1 -202 -2 -220 -8z"/>
    <path d="M4763 5059 c-68 -20 -96 -107 -52 -162 32 -42 76 -49 277 -45 l184 3 29 33 c57 64 29 160 -52 176 -48 9 -350 5 -386 -5z"/>
    <path d="M2818 4193 c-55 -35 -64 -105 -19 -155 l29 -33 207 -3 206 -3 34 34 c25 25 35 44 35 66 0 39 -24 87 -49 101 -12 6 -101 10 -218 10 -167 0 -202 -3 -225 -17z"/>
    <path d="M3764 4176 c-38 -38 -43 -70 -19 -116 28 -54 54 -60 266 -60 l191 0 34 34 c49 49 45 114 -10 158 -18 15 -47 18 -224 18 l-204 0 -34 -34z"/>
    <path d="M4738 4193 c-62 -39 -61 -128 2 -171 34 -23 39 -23 233 -20 l199 3 30 34 c27 30 30 39 25 80 -4 33 -12 52 -32 68 -25 22 -32 23 -228 23 -172 0 -206 -3 -229 -17z"/>
    <path d="M2823 3340 c-53 -32 -68 -83 -38 -139 24 -47 53 -52 273 -49 188 3 203 4 222 24 27 26 36 85 20 124 -22 54 -48 60 -257 60 -169 0 -191 -2 -220 -20z"/>
    <path d="M4754 3350 c-55 -22 -79 -93 -50 -149 24 -46 50 -51 266 -51 192 0 200 1 225 23 31 27 43 84 25 127 -22 54 -48 60 -257 59 -103 0 -198 -4 -209 -9z"/>
  </g>
</svg>