<svg version="1.0" xmlns="http://www.w3.org/2000/svg" width="800.000000" height="800.000000" viewBox="0 0 800.000000 800.000000" preserveAspectRatio="xMidYMid meet">
  <metadata>
    <rdf:RDF xmlns:rdf="http://www.w3.org/1999/02/22-rdf-syntax-ns#" xmlns:rdfs="http://www.w3.org/2000/01/rdf-schema#" xmlns:dc="http://purl.org/dc/elements/1.1/">
      <rdf:Description dc:format="image/svg+xml" dc:Label="1" dc:ContentProducer="001191330110MACRLGPT8B00000" dc:ProduceID="444853296" dc:ReservedCode1="nLjII0KUvy6MBJdt7wT3YqHmu66PXzC/P+4kChHQqe0=" dc:ContentPropagator="001191330110MACRLGPT8B00000" dc:PropagateID="444853296" dc:ReservedCode2="nLjII0KUvy6MBJdt7wT3YqHmu66PXzC/P+4kChHQqe0="/>
    </rdf:RDF>
  </metadata>
  <g transform="translate(0.000000,800.000000) scale(0.100000,-0.100000)" fill="#000000" stroke="none">
    <path d="M2308 4145 l2 -2025 1544 0 1543 0 6 68 c4 37 7 756 7 1598 0 1451 -1 1531 -17 1546 -25 21 -702 432 -1250 759 l-132 79 -853 0 -853 0 3 -2025z m2226 1399 c325 -196 594 -359 599 -363 4 -4 8 -634 10 -1399 l2 -1392 -1287 0 -1288 0 0 1755 0 1755 686 0 687 0 591 -356z"/>
    <path d="M3757 4633 c-52 -71 -156 -209 -231 -308 -75 -99 -136 -183 -136 -187 0 -5 77 -8 170 -8 l170 0 0 -290 0 -291 128 3 127 3 3 287 2 288 174 2 173 3 -126 167 c-280 371 -346 457 -353 458 -3 0 -49 -57 -101 -127z"/>
    <path d="M3030 3390 l0 -350 825 0 825 0 0 350 0 350 -130 0 -130 0 -2 -217 -3 -218 -557 -3 -558 -2 0 197 c0 109 -3 208 -6 221 -6 21 -10 22 -135 22 l-129 0 0 -350z"/>
  </g>
</svg>