<svg version="1.0" xmlns="http://www.w3.org/2000/svg" width="800.000000" height="800.000000" viewBox="0 0 800.000000 800.000000" preserveAspectRatio="xMidYMid meet">
  <metadata>
    <rdf:RDF xmlns:rdf="http://www.w3.org/1999/02/22-rdf-syntax-ns#" xmlns:rdfs="http://www.w3.org/2000/01/rdf-schema#" xmlns:dc="http://purl.org/dc/elements/1.1/">
      <rdf:Description dc:format="image/svg+xml" dc:Label="1" dc:ContentProducer="001191330110MACRLGPT8B00000" dc:ProduceID="444852847" dc:ReservedCode1="Dp4G/AxaOZR+6se9D09q+RA9saCIvDbofI8eTAiSlEg=" dc:ContentPropagator="001191330110MACRLGPT8B00000" dc:PropagateID="444852847" dc:ReservedCode2="Dp4G/AxaOZR+6se9D09q+RA9saCIvDbofI8eTAiSlEg="/>
    </rdf:RDF>
  </metadata>
  <g transform="translate(0.000000,800.000000) scale(0.100000,-0.100000)" fill="#000000" stroke="none">
    <path d="M3771 6158 c-318 -26 -611 -135 -888 -330 -133 -93 -323 -290 -415 -428 -127 -191 -214 -392 -259 -596 -26 -124 -37 -435 -20 -570 41 -305 183 -629 383 -867 61 -73 1336 -1342 1348 -1342 14 0 1294 1273 1353 1345 280 347 423 796 387 1216 -38 448 -242 847 -583 1145 -357 311 -830 466 -1306 427z m364 -303 c466 -66 881 -365 1085 -780 113 -230 144 -366 144 -620 0 -147 -4 -198 -22 -278 -30 -135 -64 -232 -123 -350 -105 -211 -108 -214 -843 -947 l-456 -455 -556 555 c-599 598 -645 651 -742 845 -51 102 -99 242 -128 375 -27 120 -24 405 5 539 122 566 586 1008 1168 1110 132 24 329 26 468 6z"/>
    <path d="M3700 4770 l0 -640 565 0 565 0 0 150 0 150 -420 0 -420 0 0 490 0 490 -145 0 -145 0 0 -640z"/>
  </g>
</svg>