<svg version="1.0" xmlns="http://www.w3.org/2000/svg" width="800.000000" height="800.000000" viewBox="0 0 800.000000 800.000000" preserveAspectRatio="xMidYMid meet">
  <metadata>
    <rdf:RDF xmlns:rdf="http://www.w3.org/1999/02/22-rdf-syntax-ns#" xmlns:rdfs="http://www.w3.org/2000/01/rdf-schema#" xmlns:dc="http://purl.org/dc/elements/1.1/">
      <rdf:Description dc:format="image/svg+xml" dc:Label="1" dc:ContentProducer="001191330110MACRLGPT8B00000" dc:ProduceID="444853680" dc:ReservedCode1="Oe7bGTL8WFt8b54+h0fcuIPrAIj7E3Ea8DgB4iFdlh8=" dc:ContentPropagator="001191330110MACRLGPT8B00000" dc:PropagateID="444853680" dc:ReservedCode2="Oe7bGTL8WFt8b54+h0fcuIPrAIj7E3Ea8DgB4iFdlh8="/>
    </rdf:RDF>
  </metadata>
  <g transform="translate(0.000000,800.000000) scale(0.100000,-0.100000)" fill="#000000" stroke="none">
    <path d="M3740 5947 c-3 -2 -37 -8 -77 -11 -153 -14 -431 -99 -594 -181 -453 -230 -803 -655 -943 -1144 -14 -47 -27 -102 -31 -122 l-7 -35 121 -42 120 -41 26 87 c40 136 64 198 120 318 198 423 588 741 1050 858 448 113 938 22 1317 -244 131 -91 308 -271 389 -395 63 -96 155 -255 147 -255 -3 0 -49 16 -104 36 -54 20 -135 49 -179 64 -44 15 -111 40 -149 54 -38 15 -72 23 -76 19 -8 -9 -92 -245 -88 -248 12 -6 641 -233 781 -280 l97 -34 13 32 c8 18 35 91 62 162 26 72 84 225 127 340 108 286 112 295 102 304 -12 10 -212 81 -229 81 -13 0 -40 -62 -101 -228 -18 -51 -36 -98 -40 -103 -3 -6 -27 26 -52 71 -271 468 -714 791 -1244 906 -105 22 -155 27 -338 31 -118 3 -217 3 -220 0z"/>
    <path d="M2154 3818 c-8 -28 -105 -293 -221 -601 -46 -126 -83 -230 -81 -231 10 -8 249 -88 252 -85 2 2 32 81 67 174 34 94 66 174 70 179 4 4 15 -7 25 -25 38 -74 156 -239 234 -327 274 -310 629 -513 1058 -604 95 -20 135 -23 362 -23 240 0 262 2 381 27 420 91 782 306 1045 621 135 161 220 305 303 514 35 91 94 274 88 278 -1 1 -57 20 -124 43 l-123 40 -11 -41 c-21 -79 -92 -262 -136 -352 -211 -428 -616 -735 -1103 -836 -100 -21 -142 -24 -325 -24 -181 0 -225 4 -319 24 -390 83 -727 291 -966 596 -74 96 -193 295 -176 295 2 0 93 -31 203 -69 109 -39 204 -71 212 -73 9 -2 25 28 48 87 38 100 56 155 51 160 -11 9 -788 275 -804 275 -2 0 -6 -10 -10 -22z"/>
  </g>
</svg>