<svg version="1.0" xmlns="http://www.w3.org/2000/svg" width="800.000000" height="800.000000" viewBox="0 0 800.000000 800.000000" preserveAspectRatio="xMidYMid meet">
  <metadata>
    <rdf:RDF xmlns:rdf="http://www.w3.org/1999/02/22-rdf-syntax-ns#" xmlns:rdfs="http://www.w3.org/2000/01/rdf-schema#" xmlns:dc="http://purl.org/dc/elements/1.1/">
      <rdf:Description dc:format="image/svg+xml" dc:Label="1" dc:ContentProducer="001191330110MACRLGPT8B00000" dc:ProduceID="444853032" dc:ReservedCode1="YL7C64JPRqgro4u9jwJDOAIozfn2UTGzHrOCMHypkMQ=" dc:ContentPropagator="001191330110MACRLGPT8B00000" dc:PropagateID="444853032" dc:ReservedCode2="YL7C64JPRqgro4u9jwJDOAIozfn2UTGzHrOCMHypkMQ="/>
    </rdf:RDF>
  </metadata>
  <g transform="translate(0.000000,800.000000) scale(0.100000,-0.100000)" fill="#000000" stroke="none">
    <path d="M3485 6123 c-478 -49 -907 -281 -1208 -653 -308 -381 -435 -885 -346 -1370 144 -787 834 -1383 1639 -1417 378 -16 753 93 1066 309 l72 49 508 -510 c279 -281 512 -511 518 -511 12 0 206 198 206 210 0 5 -224 234 -497 510 -274 276 -499 506 -501 511 -2 5 19 34 47 65 158 179 302 478 363 758 19 88 22 131 22 331 0 201 -2 243 -22 333 -34 156 -68 254 -137 399 -224 467 -623 797 -1135 936 -170 47 -423 68 -595 50z m455 -332 c533 -115 964 -530 1095 -1055 77 -310 40 -656 -100 -938 -203 -408 -568 -691 -1010 -783 -124 -26 -367 -31 -500 -11 -533 83 -981 465 -1150 981 -134 412 -52 897 212 1250 226 300 546 500 908 566 135 25 406 20 545 -10z"/>
  </g>
</svg>