<svg version="1.0" xmlns="http://www.w3.org/2000/svg" width="800.000000" height="800.000000" viewBox="0 0 800.000000 800.000000" preserveAspectRatio="xMidYMid meet">
  <metadata>
    <rdf:RDF xmlns:rdf="http://www.w3.org/1999/02/22-rdf-syntax-ns#" xmlns:rdfs="http://www.w3.org/2000/01/rdf-schema#" xmlns:dc="http://purl.org/dc/elements/1.1/">
      <rdf:Description dc:format="image/svg+xml" dc:Label="1" dc:ContentProducer="001191330110MACRLGPT8B00000" dc:ProduceID="444852947" dc:ReservedCode1="JGPHhKDoDh65yXQa62GIld1Fw1VkDxsj1+vPhPCXjpc=" dc:ContentPropagator="001191330110MACRLGPT8B00000" dc:PropagateID="444852947" dc:ReservedCode2="JGPHhKDoDh65yXQa62GIld1Fw1VkDxsj1+vPhPCXjpc="/>
    </rdf:RDF>
  </metadata>
  <g transform="translate(0.000000,800.000000) scale(0.100000,-0.100000)" fill="#000000" stroke="none">
    <path d="M3730 5789 c-371 -34 -749 -166 -1054 -370 -363 -242 -603 -546 -732 -926 -54 -160 -77 -419 -51 -589 88 -570 551 -1071 1190 -1288 291 -99 497 -132 822 -130 250 1 473 36 592 91 105 50 195 158 233 280 24 79 25 130 4 248 -31 173 -1 292 101 397 85 89 143 106 360 109 179 1 277 17 380 60 173 72 311 238 346 417 46 242 -74 620 -289 908 -244 328 -621 582 -1050 709 -287 84 -554 111 -852 84z m518 -313 c370 -68 652 -191 891 -391 232 -194 389 -428 463 -693 31 -112 31 -242 -1 -302 -32 -62 -77 -107 -136 -138 -47 -24 -62 -26 -255 -33 -280 -11 -362 -32 -507 -135 -219 -156 -322 -428 -268 -713 26 -136 -9 -208 -115 -236 -159 -42 -511 -59 -710 -35 -391 49 -739 197 -1009 431 -189 163 -337 399 -393 628 -17 67 -22 117 -22 231 0 129 3 157 28 250 108 397 410 742 831 950 207 103 474 179 700 200 126 12 404 4 503 -14z"/>
    <path d="M4145 5071 c-54 -25 -90 -66 -110 -126 -22 -65 -13 -121 28 -182 78 -114 232 -124 324 -20 61 70 68 167 17 254 -47 81 -168 116 -259 74z"/>
    <path d="M3230 4984 c-46 -20 -87 -60 -112 -108 -30 -59 -22 -151 18 -208 113 -163 376 -84 376 113 0 70 -18 113 -66 157 -65 60 -145 77 -216 46z"/>
    <path d="M2723 4308 c-26 -6 -58 -24 -87 -49 -146 -129 -56 -363 138 -363 100 1 177 59 202 154 40 155 -92 290 -253 258z"/>
  </g>
</svg>