<svg version="1.0" xmlns="http://www.w3.org/2000/svg" width="800.000000" height="800.000000" viewBox="0 0 800.000000 800.000000" preserveAspectRatio="xMidYMid meet">
  <metadata>
    <rdf:RDF xmlns:rdf="http://www.w3.org/1999/02/22-rdf-syntax-ns#" xmlns:rdfs="http://www.w3.org/2000/01/rdf-schema#" xmlns:dc="http://purl.org/dc/elements/1.1/">
      <rdf:Description dc:format="image/svg+xml" dc:Label="1" dc:ContentProducer="001191330110MACRLGPT8B00000" dc:ProduceID="444854445" dc:ReservedCode1="PucaHQBe8F/3oaELBP3wDGX0LRLnADr4MBBm079F0m0=" dc:ContentPropagator="001191330110MACRLGPT8B00000" dc:PropagateID="444854445" dc:ReservedCode2="PucaHQBe8F/3oaELBP3wDGX0LRLnADr4MBBm079F0m0="/>
    </rdf:RDF>
  </metadata>
  <g transform="translate(0.000000,800.000000) scale(0.100000,-0.100000)" fill="#000000" stroke="none">
    <path d="M3388 6080 l-3 -120 508 0 507 0 0 120 0 120 -504 0 -505 0 -3 -120z"/>
    <path d="M3735 5793 c-231 -29 -381 -67 -561 -142 -563 -238 -971 -738 -1101 -1350 -25 -116 -27 -145 -28 -361 0 -268 13 -355 86 -575 195 -588 680 -1051 1274 -1219 656 -185 1362 0 1846 483 500 500 672 1220 453 1891 -53 162 -169 384 -278 535 -108 150 -107 126 -11 259 31 43 53 82 48 85 -26 20 -184 121 -188 121 -11 0 -117 -151 -150 -214 -62 -118 -46 -187 86 -369 191 -264 294 -513 330 -793 17 -136 6 -413 -20 -534 -113 -511 -469 -945 -946 -1151 -727 -315 -1555 -77 -2014 579 -64 93 -170 307 -206 417 -55 172 -68 264 -69 480 0 171 3 215 22 305 75 347 220 612 469 857 414 408 1066 565 1613 387 222 -73 289 -141 290 -295 0 -90 6 -98 83 -106 134 -14 163 18 154 167 -6 115 -35 187 -108 264 -168 180 -521 289 -918 285 -69 -1 -139 -4 -156 -6z"/>
    <path d="M3770 4282 l0 -407 348 -348 347 -347 163 0 c89 0 162 3 162 8 0 4 -175 183 -390 397 l-390 390 0 357 0 358 -120 0 -120 0 0 -408z"/>
  </g>
</svg>