<svg version="1.0" xmlns="http://www.w3.org/2000/svg" width="800.000000" height="800.000000" viewBox="0 0 800.000000 800.000000" preserveAspectRatio="xMidYMid meet">
  <metadata>
    <rdf:RDF xmlns:rdf="http://www.w3.org/1999/02/22-rdf-syntax-ns#" xmlns:rdfs="http://www.w3.org/2000/01/rdf-schema#" xmlns:dc="http://purl.org/dc/elements/1.1/">
      <rdf:Description dc:format="image/svg+xml" dc:Label="1" dc:ContentProducer="001191330110MACRLGPT8B00000" dc:ProduceID="444853321" dc:ReservedCode1="P6TQGQDOCxKiLczSS5IiUmf35fgGqGFXY/npzSLQn2Y=" dc:ContentPropagator="001191330110MACRLGPT8B00000" dc:PropagateID="444853321" dc:ReservedCode2="P6TQGQDOCxKiLczSS5IiUmf35fgGqGFXY/npzSLQn2Y="/>
    </rdf:RDF>
  </metadata>
  <g transform="translate(0.000000,800.000000) scale(0.100000,-0.100000)" fill="#000000" stroke="none">
    <path d="M3745 5701 c-69 -18 -116 -55 -151 -121 -18 -33 -19 -71 -22 -592 l-3 -557 -557 -3 c-548 -3 -558 -3 -597 -25 -46 -24 -75 -54 -101 -103 -17 -31 -19 -64 -22 -270 -2 -148 0 -254 7 -286 14 -60 57 -116 114 -147 42 -22 45 -22 600 -25 l557 -3 0 -535 c0 -353 4 -550 11 -578 14 -55 59 -110 112 -139 40 -21 52 -22 307 -22 255 0 267 1 307 22 53 29 98 84 112 139 7 28 11 225 11 578 l0 535 558 3 c554 3 557 3 599 25 57 31 100 87 114 147 7 32 9 138 7 286 -3 218 -5 238 -25 275 -24 46 -54 75 -103 101 -33 18 -71 19 -592 22 l-557 3 -3 557 c-3 548 -3 558 -25 597 -24 46 -54 75 -103 101 -31 17 -62 19 -280 21 -135 1 -258 -2 -275 -6z m465 -747 c0 -352 4 -550 11 -578 14 -55 59 -110 112 -139 42 -22 45 -22 600 -25 l557 -3 0 -212 0 -212 -558 0 c-525 0 -559 -1 -592 -19 -49 -26 -79 -55 -103 -101 -22 -40 -22 -46 -22 -597 l0 -558 -212 0 -213 0 0 548 c0 529 -1 548 -21 592 -25 56 -53 86 -104 113 -39 22 -49 22 -597 25 l-558 3 0 209 0 209 558 3 c554 3 557 3 599 25 53 29 98 84 112 139 7 28 11 226 11 578 l0 536 210 0 210 0 0 -536z"/>
  </g>
</svg>