<svg version="1.0" xmlns="http://www.w3.org/2000/svg" width="800.000000" height="800.000000" viewBox="0 0 800.000000 800.000000" preserveAspectRatio="xMidYMid meet">
  <metadata>
    <rdf:RDF xmlns:rdf="http://www.w3.org/1999/02/22-rdf-syntax-ns#" xmlns:rdfs="http://www.w3.org/2000/01/rdf-schema#" xmlns:dc="http://purl.org/dc/elements/1.1/">
      <rdf:Description dc:format="image/svg+xml" dc:Label="1" dc:ContentProducer="001191330110MACRLGPT8B00000" dc:ProduceID="444852889" dc:ReservedCode1="w2uQzyoA3TrQ1Q9NxVNB6HtXTAguwSpBenOr5vxw1Ko=" dc:ContentPropagator="001191330110MACRLGPT8B00000" dc:PropagateID="444852889" dc:ReservedCode2="w2uQzyoA3TrQ1Q9NxVNB6HtXTAguwSpBenOr5vxw1Ko="/>
    </rdf:RDF>
  </metadata>
  <g transform="translate(0.000000,800.000000) scale(0.100000,-0.100000)" fill="#000000" stroke="none">
    <path d="M2926 6101 l-89 -90 921 -916 c507 -505 922 -921 922 -926 0 -4 -37 -46 -82 -91 -1358 -1370 -1753 -1772 -1753 -1782 0 -13 168 -176 182 -176 5 0 99 91 209 202 109 112 563 571 1009 1021 445 450 811 821 813 826 1 4 -163 171 -365 371 -203 200 -659 653 -1015 1007 -356 354 -650 643 -655 643 -5 0 -48 -40 -97 -89z"/>
  </g>
</svg>