<svg version="1.0" xmlns="http://www.w3.org/2000/svg" width="800.000000" height="800.000000" viewBox="0 0 800.000000 800.000000" preserveAspectRatio="xMidYMid meet">
  <metadata>
    <rdf:RDF xmlns:rdf="http://www.w3.org/1999/02/22-rdf-syntax-ns#" xmlns:rdfs="http://www.w3.org/2000/01/rdf-schema#" xmlns:dc="http://purl.org/dc/elements/1.1/">
      <rdf:Description dc:format="image/svg+xml" dc:Label="1" dc:ContentProducer="001191330110MACRLGPT8B00000" dc:ProduceID="444853644" dc:ReservedCode1="x9vQhoKJyHAOKA03BM1YlffslVnOo0yhhgozUkbldxo=" dc:ContentPropagator="001191330110MACRLGPT8B00000" dc:PropagateID="444853644" dc:ReservedCode2="x9vQhoKJyHAOKA03BM1YlffslVnOo0yhhgozUkbldxo="/>
    </rdf:RDF>
  </metadata>
  <g transform="translate(0.000000,800.000000) scale(0.100000,-0.100000)" fill="#000000" stroke="none">
    <path d="M3623 6100 c-573 -87 -1089 -415 -1399 -890 -151 -232 -235 -432 -293 -700 -53 -244 -54 -570 -2 -820 170 -817 783 -1423 1618 -1596 112 -24 155 -27 348 -30 242 -3 360 10 552 60 145 37 229 69 378 141 537 260 933 738 1084 1305 104 392 90 801 -40 1183 -42 122 -145 331 -215 437 -341 513 -875 844 -1484 919 -132 17 -406 12 -547 -9z m602 -255 c647 -114 1175 -552 1393 -1155 76 -209 103 -376 101 -615 -2 -244 -34 -416 -115 -623 -183 -471 -567 -847 -1047 -1026 -333 -125 -707 -146 -1055 -61 -685 167 -1215 729 -1333 1414 -136 789 251 1551 966 1902 196 96 415 159 609 176 39 3 73 8 76 11 10 10 318 -7 405 -23z"/>
    <path d="M2680 4060 l0 -930 1240 0 1240 0 0 930 0 930 -1240 0 -1240 0 0 -930z m2230 -5 l0 -675 -990 0 -990 0 0 675 0 675 990 0 990 0 0 -675z"/>
    <path d="M3778 4546 c-142 -42 -254 -138 -321 -276 -38 -79 -41 -91 -45 -190 -7 -163 37 -283 140 -389 97 -97 209 -150 340 -159 237 -15 462 150 523 383 62 241 -55 495 -277 600 -127 60 -232 69 -360 31z m265 -264 c98 -55 144 -143 134 -259 -9 -112 -80 -196 -194 -229 -63 -18 -117 -12 -183 21 -90 46 -140 128 -139 230 0 126 65 218 184 263 50 19 138 8 198 -26z"/>
  </g>
</svg>