<svg version="1.0" xmlns="http://www.w3.org/2000/svg" width="800.000000" height="800.000000" viewBox="0 0 800.000000 800.000000" preserveAspectRatio="xMidYMid meet">
  <metadata>
    <rdf:RDF xmlns:rdf="http://www.w3.org/1999/02/22-rdf-syntax-ns#" xmlns:rdfs="http://www.w3.org/2000/01/rdf-schema#" xmlns:dc="http://purl.org/dc/elements/1.1/">
      <rdf:Description dc:format="image/svg+xml" dc:Label="1" dc:ContentProducer="001191330110MACRLGPT8B00000" dc:ProduceID="444852895" dc:ReservedCode1="pm67Wdi0jIyuwN1boS5Djazp3X+SbAEkRPqqE4S4yd4=" dc:ContentPropagator="001191330110MACRLGPT8B00000" dc:PropagateID="444852895" dc:ReservedCode2="pm67Wdi0jIyuwN1boS5Djazp3X+SbAEkRPqqE4S4yd4="/>
    </rdf:RDF>
  </metadata>
  <g transform="translate(0.000000,800.000000) scale(0.100000,-0.100000)" fill="#000000" stroke="none">
    <path d="M2376 5614 l-69 -73 770 -770 769 -770 -759 -758 c-417 -417 -762 -766 -768 -775 -7 -13 6 -31 63 -90 l73 -74 767 769 c422 423 772 767 777 765 6 -1 354 -346 774 -765 420 -420 767 -763 772 -763 12 0 145 133 145 145 0 5 -345 355 -767 777 l-767 767 164 168 c91 92 438 440 771 774 l605 606 -72 72 c-40 39 -77 71 -81 71 -4 0 -353 -345 -775 -767 l-768 -768 -768 768 c-422 422 -772 766 -777 766 -6 -1 -41 -35 -79 -75z"/>
  </g>
</svg>