<svg version="1.0" xmlns="http://www.w3.org/2000/svg" width="800.000000" height="800.000000" viewBox="0 0 800.000000 800.000000" preserveAspectRatio="xMidYMid meet">
  <metadata>
    <rdf:RDF xmlns:rdf="http://www.w3.org/1999/02/22-rdf-syntax-ns#" xmlns:rdfs="http://www.w3.org/2000/01/rdf-schema#" xmlns:dc="http://purl.org/dc/elements/1.1/">
      <rdf:Description dc:format="image/svg+xml" dc:Label="1" dc:ContentProducer="001191330110MACRLGPT8B00000" dc:ProduceID="444853320" dc:ReservedCode1="boxnYTeZl7TcgjD7FbwrD1aFiHCXbdT1M7L4A+30hNo=" dc:ContentPropagator="001191330110MACRLGPT8B00000" dc:PropagateID="444853320" dc:ReservedCode2="boxnYTeZl7TcgjD7FbwrD1aFiHCXbdT1M7L4A+30hNo="/>
    </rdf:RDF>
  </metadata>
  <g transform="translate(0.000000,800.000000) scale(0.100000,-0.100000)" fill="#000000" stroke="none">
    <path d="M3310 5815 l0 -105 -507 -2 -508 -3 0 -105 0 -105 1705 0 1705 0 0 105 0 105 -507 3 -508 2 0 105 0 105 -690 0 -690 0 0 -105z"/>
    <path d="M2535 5257 c-14 -21 -11 -52 25 -338 22 -173 55 -453 75 -624 19 -170 58 -494 86 -720 74 -607 138 -1143 153 -1292 15 -131 31 -185 61 -197 9 -3 426 -6 926 -6 670 0 916 -3 932 -12 12 -6 60 -22 107 -35 409 -115 835 105 972 502 153 445 -101 918 -556 1035 -110 28 -283 28 -392 -1 -305 -78 -532 -320 -590 -627 -19 -101 -14 -251 12 -347 20 -74 72 -189 113 -249 17 -24 31 -47 31 -50 0 -4 -316 -5 -702 -4 l-702 3 -22 190 c-13 105 -32 267 -43 360 -149 1235 -261 2182 -261 2204 l0 21 1240 0 1240 0 0 -20 c0 -28 -52 -475 -100 -864 -22 -175 -40 -328 -40 -340 0 -21 6 -23 103 -32 56 -6 103 -10 104 -9 2 1 14 100 28 221 48 422 133 1130 141 1175 5 29 2 41 -15 58 l-21 21 -1445 0 -1445 0 -15 -23z m2729 -1892 c108 -28 185 -74 271 -160 93 -93 135 -168 159 -287 20 -95 20 -153 1 -242 -43 -202 -187 -362 -390 -432 -100 -35 -244 -39 -340 -10 -162 48 -302 161 -369 297 -162 329 -2 712 343 824 92 29 234 34 325 10z"/>
    <path d="M4855 3083 c-33 -36 -61 -68 -63 -72 -2 -6 532 -533 547 -539 3 -1 38 30 76 69 l70 70 -272 270 c-150 148 -278 269 -285 268 -7 0 -40 -30 -73 -66z"/>
    <path d="M3250 4737 c0 -12 17 -361 40 -802 5 -110 19 -400 31 -644 11 -245 23 -497 27 -560 l7 -116 103 -3 102 -3 0 76 c0 42 -4 151 -10 243 -5 92 -14 271 -20 397 -6 127 -15 320 -20 430 -5 110 -17 364 -25 565 -9 201 -18 380 -21 398 l-5 32 -104 0 c-79 0 -105 -3 -105 -13z"/>
    <path d="M3897 4744 c-10 -10 -8 -2106 1 -2122 6 -9 35 -12 108 -10 l99 3 0 1065 0 1065 -101 3 c-55 1 -103 0 -107 -4z"/>
    <path d="M4536 4658 c-3 -51 -8 -145 -11 -208 -3 -63 -15 -276 -26 -473 -11 -196 -19 -364 -17 -373 2 -12 16 -5 58 26 30 23 78 53 105 67 28 14 51 27 53 28 4 3 52 904 52 973 l0 52 -104 0 -104 0 -6 -92z"/>
  </g>
</svg>