<svg version="1.0" xmlns="http://www.w3.org/2000/svg" width="800.000000" height="800.000000" viewBox="0 0 800.000000 800.000000" preserveAspectRatio="xMidYMid meet">
  <metadata>
    <rdf:RDF xmlns:rdf="http://www.w3.org/1999/02/22-rdf-syntax-ns#" xmlns:rdfs="http://www.w3.org/2000/01/rdf-schema#" xmlns:dc="http://purl.org/dc/elements/1.1/">
      <rdf:Description dc:format="image/svg+xml" dc:Label="1" dc:ContentProducer="001191330110MACRLGPT8B00000" dc:ProduceID="444852993" dc:ReservedCode1="FiJfpVMCoYxxK8q66GAAyPrFOPwwSrjTrnN8vR3cm0o=" dc:ContentPropagator="001191330110MACRLGPT8B00000" dc:PropagateID="444852993" dc:ReservedCode2="FiJfpVMCoYxxK8q66GAAyPrFOPwwSrjTrnN8vR3cm0o="/>
    </rdf:RDF>
  </metadata>
  <g transform="translate(0.000000,800.000000) scale(0.100000,-0.100000)" fill="#000000" stroke="none">
    <path d="M2413 5256 c-59 -28 -96 -75 -113 -146 -7 -32 -10 -371 -8 -1135 l3 -1091 26 -49 c18 -35 39 -59 74 -80 l48 -30 1536 -3 c1173 -2 1546 0 1580 9 47 13 99 59 128 112 17 30 18 100 18 1157 l0 1125 -21 40 c-27 50 -48 69 -104 94 -45 20 -58 21 -1580 21 l-1535 0 -52 -24z m2905 -195 c-3 -8 -259 -228 -803 -691 -126 -107 -293 -250 -371 -317 l-143 -122 -153 131 c-84 72 -268 228 -408 347 -140 119 -266 225 -280 237 -14 12 -117 100 -230 196 -113 96 -215 182 -227 193 -13 11 -23 23 -23 27 0 5 594 8 1321 8 732 0 1319 -4 1317 -9z m-2638 -281 c74 -63 209 -178 300 -255 954 -815 879 -753 940 -776 112 -43 167 -20 376 159 1128 964 1186 1012 1194 1007 3 -2 4 -449 2 -994 l-2 -991 -1490 0 -1490 0 0 997 c0 948 1 995 18 981 9 -8 78 -66 152 -128z"/>
  </g>
</svg>