<svg version="1.0" xmlns="http://www.w3.org/2000/svg" width="800.000000" height="800.000000" viewBox="0 0 800.000000 800.000000" preserveAspectRatio="xMidYMid meet">
  <metadata>
    <rdf:RDF xmlns:rdf="http://www.w3.org/1999/02/22-rdf-syntax-ns#" xmlns:rdfs="http://www.w3.org/2000/01/rdf-schema#" xmlns:dc="http://purl.org/dc/elements/1.1/">
      <rdf:Description dc:format="image/svg+xml" dc:Label="1" dc:ContentProducer="001191330110MACRLGPT8B00000" dc:ProduceID="444853642" dc:ReservedCode1="wulRBUsiTkXJRzLkbYJTmae3kzpn0R7oJomxVxehQ6E=" dc:ContentPropagator="001191330110MACRLGPT8B00000" dc:PropagateID="444853642" dc:ReservedCode2="wulRBUsiTkXJRzLkbYJTmae3kzpn0R7oJomxVxehQ6E="/>
    </rdf:RDF>
  </metadata>
  <g transform="translate(0.000000,800.000000) scale(0.100000,-0.100000)" fill="#000000" stroke="none">
    <path d="M1957 6113 c-4 -3 -7 -287 -7 -630 l0 -623 180 0 180 0 2 473 3 472 468 3 467 2 0 155 0 155 -643 0 c-354 0 -647 -3 -650 -7z"/>
    <path d="M4630 5965 l0 -155 465 0 465 0 0 -475 0 -475 180 0 180 0 0 630 0 630 -645 0 -645 0 0 -155z"/>
    <path d="M1910 4120 l0 -150 2025 0 2025 0 0 150 0 150 -2025 0 -2025 0 0 -150z"/>
    <path d="M1955 3408 c-3 -7 -4 -290 -3 -628 l3 -615 645 0 645 0 3 153 3 152 -471 0 -470 0 0 475 0 475 -175 0 c-131 0 -177 -3 -180 -12z"/>
    <path d="M5567 3413 c-4 -3 -7 -217 -7 -475 l0 -468 -465 0 -465 0 0 -155 0 -155 645 0 645 0 0 630 0 630 -173 0 c-96 0 -177 -3 -180 -7z"/>
  </g>
</svg>