<svg version="1.0" xmlns="http://www.w3.org/2000/svg" width="800.000000" height="800.000000" viewBox="0 0 800.000000 800.000000" preserveAspectRatio="xMidYMid meet">
  <metadata>
    <rdf:RDF xmlns:rdf="http://www.w3.org/1999/02/22-rdf-syntax-ns#" xmlns:rdfs="http://www.w3.org/2000/01/rdf-schema#" xmlns:dc="http://purl.org/dc/elements/1.1/">
      <rdf:Description dc:format="image/svg+xml" dc:Label="1" dc:ContentProducer="001191330110MACRLGPT8B00000" dc:ProduceID="444853298" dc:ReservedCode1="g+zieVYHgWguuCsbvEh4DeIT/gbkPsBLlXnNQCwx92Y=" dc:ContentPropagator="001191330110MACRLGPT8B00000" dc:PropagateID="444853298" dc:ReservedCode2="g+zieVYHgWguuCsbvEh4DeIT/gbkPsBLlXnNQCwx92Y="/>
    </rdf:RDF>
  </metadata>
  <g transform="translate(0.000000,800.000000) scale(0.100000,-0.100000)" fill="#000000" stroke="none">
    <path d="M4030 5727 l0 -577 -59 0 c-179 0 -448 -47 -656 -115 -553 -180 -1000 -573 -1273 -1120 -174 -348 -271 -730 -306 -1205 -13 -169 -21 -630 -12 -630 3 0 20 33 39 73 153 316 517 672 912 890 360 198 798 321 1228 343 l127 7 0 -634 0 -634 1043 1040 c574 572 1044 1045 1045 1050 2 8 -1917 1930 -2045 2050 l-43 39 0 -577z m996 -818 l692 -692 -61 -56 c-43 -39 -1113 -1100 -1328 -1315 -3 -3 -4 183 -2 414 l3 420 -188 0 c-570 0 -1032 -103 -1498 -331 -182 -90 -498 -297 -553 -363 -8 -10 -23 -22 -34 -27 -22 -12 -24 -27 19 171 109 515 314 908 636 1216 244 234 565 402 903 473 158 33 235 39 478 39 l229 0 1 371 c1 204 4 371 7 371 3 0 316 -311 696 -691z"/>
  </g>
</svg>