<svg version="1.0" xmlns="http://www.w3.org/2000/svg" width="800.000000" height="800.000000" viewBox="0 0 800.000000 800.000000" preserveAspectRatio="xMidYMid meet">
  <metadata>
    <rdf:RDF xmlns:rdf="http://www.w3.org/1999/02/22-rdf-syntax-ns#" xmlns:rdfs="http://www.w3.org/2000/01/rdf-schema#" xmlns:dc="http://purl.org/dc/elements/1.1/">
      <rdf:Description dc:format="image/svg+xml" dc:Label="1" dc:ContentProducer="001191330110MACRLGPT8B00000" dc:ProduceID="444852892" dc:ReservedCode1="gkvg4GIWdoqWxJ0X04ec0PtRVedoWXZ0qeZCXpkl5eg=" dc:ContentPropagator="001191330110MACRLGPT8B00000" dc:PropagateID="444852892" dc:ReservedCode2="gkvg4GIWdoqWxJ0X04ec0PtRVedoWXZ0qeZCXpkl5eg="/>
    </rdf:RDF>
  </metadata>
  <g transform="translate(0.000000,800.000000) scale(0.100000,-0.100000)" fill="#000000" stroke="none">
    <path d="M2235 5905 c-54 -19 -128 -100 -144 -156 -9 -34 -11 -512 -9 -2014 3 -1861 4 -1972 21 -2002 23 -43 67 -87 108 -110 33 -17 105 -18 1790 -18 l1756 0 49 30 c30 19 60 49 79 79 l30 49 0 1997 0 1997 -30 49 c-19 30 -49 60 -79 79 l-49 30 -1741 2 c-1475 2 -1747 0 -1781 -12z m3470 -2145 l0 -1945 -1705 0 -1705 0 -3 1935 c-1 1064 0 1941 3 1948 3 10 350 12 1707 10 l1703 -3 0 -1945z"/>
    <path d="M2775 5424 c-50 -19 -108 -74 -137 -133 -23 -46 -23 -49 -23 -461 0 -473 0 -476 80 -549 82 -76 7 -72 1326 -69 1106 3 1176 4 1214 21 50 23 100 70 128 122 22 39 22 48 22 465 0 411 -1 426 -21 470 -25 54 -64 94 -119 124 l-40 21 -1195 2 c-1029 1 -1201 0 -1235 -13z m2395 -594 l0 -400 -1170 0 -1170 0 0 400 0 400 1170 0 1170 0 0 -400z"/>
    <path d="M2854 3867 c-80 -31 -126 -67 -173 -138 -80 -120 -87 -264 -19 -392 92 -172 313 -241 494 -152 65 32 137 109 172 183 23 49 27 70 27 152 0 87 -3 101 -32 161 -64 130 -176 201 -323 206 -70 3 -96 -1 -146 -20z m224 -214 c15 -11 38 -35 50 -54 46 -66 14 -187 -58 -224 -42 -22 -128 -19 -167 5 -106 64 -101 226 8 283 44 23 129 19 167 -10z"/>
    <path d="M3889 3876 c-111 -42 -181 -106 -227 -204 -24 -50 -27 -70 -27 -157 0 -91 3 -105 30 -159 57 -113 163 -191 277 -204 172 -20 322 58 394 203 26 55 29 69 29 165 0 96 -2 110 -28 159 -71 134 -180 204 -327 208 -53 2 -98 -3 -121 -11z m179 -210 c15 -8 41 -28 57 -46 27 -29 30 -37 30 -100 0 -54 -4 -74 -21 -97 -51 -68 -153 -86 -223 -40 -106 71 -89 239 29 286 37 14 97 13 128 -3z"/>
    <path d="M4849 3871 c-100 -39 -165 -117 -195 -230 -13 -54 -14 -74 -4 -125 16 -83 56 -152 112 -197 71 -56 104 -64 258 -64 120 0 141 3 188 24 60 27 125 94 155 161 28 60 29 174 3 250 -26 76 -111 159 -185 183 -76 24 -268 23 -332 -2z m274 -202 c62 -32 77 -114 31 -168 -26 -31 -26 -31 -131 -31 -115 0 -136 7 -158 50 -25 49 -19 88 19 126 34 34 35 34 126 34 50 0 101 -5 113 -11z"/>
    <path d="M4839 3024 c-60 -18 -141 -93 -171 -159 -22 -48 -23 -60 -23 -305 l0 -255 28 -57 c30 -62 74 -105 140 -140 36 -19 61 -23 179 -26 104 -3 149 0 191 12 71 21 146 87 178 158 23 51 24 61 24 308 0 247 -1 257 -24 308 -31 69 -106 137 -174 157 -66 20 -283 19 -348 -1z m305 -215 l26 -20 0 -229 0 -229 -26 -20 c-23 -18 -41 -21 -130 -21 -94 0 -105 2 -131 24 l-28 24 -2 216 c-2 280 -8 271 178 275 74 1 90 -2 113 -20z"/>
    <path d="M2914 2820 c-100 -21 -201 -94 -247 -178 -81 -150 -66 -314 40 -432 154 -172 415 -172 565 -1 109 124 117 335 16 466 -87 113 -242 173 -374 145z m154 -227 c47 -22 75 -67 80 -128 5 -62 -13 -102 -61 -139 -67 -52 -156 -44 -217 19 -30 31 -34 43 -38 98 -2 49 1 69 17 94 47 75 130 96 219 56z"/>
    <path d="M3917 2820 c-105 -27 -205 -107 -253 -205 -26 -54 -29 -70 -29 -160 0 -93 2 -105 33 -167 112 -227 415 -276 595 -96 66 66 99 142 105 239 12 210 -136 377 -350 393 -35 3 -80 1 -101 -4z m167 -229 c47 -26 69 -65 74 -128 3 -48 0 -64 -20 -92 -39 -58 -72 -76 -137 -76 -48 0 -64 5 -95 29 -162 123 1 367 178 267z"/>
  </g>
</svg>