<svg version="1.0" xmlns="http://www.w3.org/2000/svg" width="800.000000" height="800.000000" viewBox="0 0 800.000000 800.000000" preserveAspectRatio="xMidYMid meet">
  <metadata>
    <rdf:RDF xmlns:rdf="http://www.w3.org/1999/02/22-rdf-syntax-ns#" xmlns:rdfs="http://www.w3.org/2000/01/rdf-schema#" xmlns:dc="http://purl.org/dc/elements/1.1/">
      <rdf:Description dc:format="image/svg+xml" dc:Label="1" dc:ContentProducer="001191330110MACRLGPT8B00000" dc:ProduceID="444852848" dc:ReservedCode1="CjdtVDpaLvGN2Gs1SdQ/kN+bisjNxk8ZVrNYE+s4I9M=" dc:ContentPropagator="001191330110MACRLGPT8B00000" dc:PropagateID="444852848" dc:ReservedCode2="CjdtVDpaLvGN2Gs1SdQ/kN+bisjNxk8ZVrNYE+s4I9M="/>
    </rdf:RDF>
  </metadata>
  <g transform="translate(0.000000,800.000000) scale(0.100000,-0.100000)" fill="#000000" stroke="none">
    <path d="M3751 6159 c-648 -49 -1260 -405 -1617 -942 -183 -273 -303 -606 -331 -910 -14 -144 -7 -443 11 -547 41 -229 97 -401 193 -595 283 -567 843 -991 1479 -1120 167 -34 238 -40 469 -39 211 1 297 12 488 60 466 117 888 392 1175 763 216 279 348 583 408 936 24 139 24 469 1 621 -54 351 -204 693 -425 969 -342 428 -856 720 -1387 789 -143 19 -333 25 -464 15z m384 -274 c142 -17 163 -21 275 -50 640 -169 1150 -671 1315 -1295 80 -304 75 -645 -15 -962 -200 -710 -893 -1259 -1649 -1307 -566 -35 -1095 160 -1481 549 -252 252 -422 566 -489 900 -21 107 -44 376 -36 427 2 15 7 65 10 109 3 45 14 126 25 180 190 927 1088 1564 2045 1449z"/>
    <path d="M4910 5140 c-41 -16 -192 -72 -335 -125 -143 -53 -289 -107 -325 -120 -36 -14 -236 -88 -445 -166 -209 -77 -385 -146 -392 -152 -15 -15 -26 -42 -273 -682 -115 -297 -238 -613 -273 -702 -36 -90 -63 -163 -61 -163 2 0 18 7 36 15 34 15 242 93 688 259 298 110 838 312 861 321 10 4 45 79 89 193 40 103 99 257 132 342 33 85 92 236 130 335 110 283 259 658 264 667 9 14 -19 8 -96 -22z m-434 -522 c-165 -429 -204 -531 -247 -639 l-50 -127 -52 -21 c-29 -11 -198 -75 -377 -141 -179 -66 -347 -130 -374 -140 -27 -11 -52 -20 -57 -20 -4 0 4 28 18 63 14 34 42 109 63 167 39 107 156 411 205 532 l27 67 66 25 c360 137 779 294 789 295 9 1 5 -19 -11 -61z"/>
  </g>
</svg>