<svg version="1.0" xmlns="http://www.w3.org/2000/svg" width="800.000000" height="800.000000" viewBox="0 0 800.000000 800.000000" preserveAspectRatio="xMidYMid meet">
  <metadata>
    <rdf:RDF xmlns:rdf="http://www.w3.org/1999/02/22-rdf-syntax-ns#" xmlns:rdfs="http://www.w3.org/2000/01/rdf-schema#" xmlns:dc="http://purl.org/dc/elements/1.1/">
      <rdf:Description dc:format="image/svg+xml" dc:Label="1" dc:ContentProducer="001191330110MACRLGPT8B00000" dc:ProduceID="444853317" dc:ReservedCode1="YTmZTWvYcpomJ4uzPksvRP1o1XNAzU0/6j3oEnHG41s=" dc:ContentPropagator="001191330110MACRLGPT8B00000" dc:PropagateID="444853317" dc:ReservedCode2="YTmZTWvYcpomJ4uzPksvRP1o1XNAzU0/6j3oEnHG41s="/>
    </rdf:RDF>
  </metadata>
  <g transform="translate(0.000000,800.000000) scale(0.100000,-0.100000)" fill="#000000" stroke="none">
    <path d="M2713 5586 c-4 -8 -53 -61 -108 -118 -146 -152 -721 -753 -788 -824 l-57 -61 0 -971 0 -972 2115 0 2115 0 0 918 c0 504 3 940 6 968 l6 50 -443 463 c-244 255 -463 486 -487 512 l-44 49 -1153 0 c-981 0 -1155 -2 -1162 -14z m2325 -358 c424 -443 532 -557 532 -563 0 -3 -272 -5 -605 -5 l-605 0 0 -68 c0 -114 -42 -236 -112 -325 -40 -50 -140 -119 -210 -145 -175 -65 -370 -21 -504 112 -98 98 -144 212 -144 353 l0 73 -606 2 -607 3 154 160 c85 89 234 245 332 348 l179 187 1034 0 1035 0 127 -132z m-1859 -885 c52 -170 192 -334 362 -423 186 -97 430 -105 624 -19 187 81 354 266 410 449 l18 60 579 0 578 0 -2 -762 -3 -763 -1850 -3 c-1017 -1 -1860 0 -1871 3 -22 5 -22 8 -19 197 2 106 4 448 4 761 l1 567 574 0 574 0 21 -67z"/>
  </g>
</svg>