<svg version="1.0" xmlns="http://www.w3.org/2000/svg" width="800.000000" height="800.000000" viewBox="0 0 800.000000 800.000000" preserveAspectRatio="xMidYMid meet">
  <metadata>
    <rdf:RDF xmlns:rdf="http://www.w3.org/1999/02/22-rdf-syntax-ns#" xmlns:rdfs="http://www.w3.org/2000/01/rdf-schema#" xmlns:dc="http://purl.org/dc/elements/1.1/">
      <rdf:Description dc:format="image/svg+xml" dc:Label="1" dc:ContentProducer="001191330110MACRLGPT8B00000" dc:ProduceID="444853455" dc:ReservedCode1="5+0KT6hUxEcQ8J0cGkE3d3URv7cXxzo1uibVGPXl20s=" dc:ContentPropagator="001191330110MACRLGPT8B00000" dc:PropagateID="444853455" dc:ReservedCode2="5+0KT6hUxEcQ8J0cGkE3d3URv7cXxzo1uibVGPXl20s="/>
    </rdf:RDF>
  </metadata>
  <g transform="translate(0.000000,800.000000) scale(0.100000,-0.100000)" fill="#000000" stroke="none">
    <path d="M3930 5794 c-115 -17 -178 -30 -260 -56 -324 -103 -584 -322 -748 -631 -96 -178 -145 -390 -145 -612 1 -339 123 -639 359 -885 188 -196 408 -317 679 -376 112 -24 370 -24 480 0 157 34 355 114 459 185 l29 19 45 -61 c25 -34 58 -79 74 -100 l29 -38 -18 -47 c-26 -68 -23 -157 8 -218 25 -50 486 -672 543 -732 63 -68 178 -99 262 -72 109 36 174 117 182 229 7 108 -8 139 -194 386 -91 121 -208 280 -261 353 -127 176 -170 208 -295 217 -34 2 -64 8 -68 12 -33 40 -140 192 -140 200 0 5 23 33 51 63 28 30 78 95 111 144 152 227 221 456 221 731 0 160 -17 265 -68 419 -173 528 -670 883 -1225 875 -47 -1 -96 -3 -110 -5z m240 -204 c128 -15 233 -45 355 -104 126 -61 202 -115 297 -213 155 -158 247 -332 293 -553 24 -112 24 -326 1 -429 -93 -414 -375 -721 -768 -835 -414 -120 -864 26 -1134 368 -294 370 -317 884 -58 1283 219 337 620 528 1014 483z m1043 -2466 c28 -37 231 -309 292 -394 30 -41 89 -122 131 -179 48 -65 77 -114 77 -130 0 -28 -35 -61 -66 -61 -26 0 -47 24 -245 288 -330 442 -335 449 -294 484 38 33 74 30 105 -8z"/>
    <path d="M3954 5021 c-84 -14 -182 -48 -299 -106 -128 -64 -240 -142 -406 -284 l-119 -102 62 -70 c35 -38 68 -69 74 -69 6 0 19 10 30 21 19 21 208 179 230 192 9 5 10 -16 7 -76 -25 -409 387 -679 764 -501 84 40 182 142 227 235 44 94 63 204 49 296 l-10 62 41 -32 c22 -18 86 -69 141 -114 55 -46 102 -83 105 -83 3 0 34 32 69 70 51 58 60 72 49 83 -39 38 -226 190 -294 239 -256 184 -519 271 -720 239z m220 -221 c72 -27 139 -88 173 -158 24 -50 28 -68 28 -147 0 -81 -3 -96 -30 -145 -37 -67 -92 -122 -153 -152 -38 -19 -63 -23 -132 -23 -76 0 -93 3 -152 33 -44 21 -80 48 -103 77 -140 170 -73 437 129 514 69 27 169 27 240 1z"/>
    <path d="M4010 4613 c-50 -20 -87 -90 -75 -143 9 -40 58 -88 99 -95 20 -4 47 -1 69 9 116 48 91 221 -34 232 -24 2 -51 1 -59 -3z"/>
  </g>
</svg>