<svg version="1.0" xmlns="http://www.w3.org/2000/svg" width="800.000000" height="800.000000" viewBox="0 0 800.000000 800.000000" preserveAspectRatio="xMidYMid meet">
  <metadata>
    <rdf:RDF xmlns:rdf="http://www.w3.org/1999/02/22-rdf-syntax-ns#" xmlns:rdfs="http://www.w3.org/2000/01/rdf-schema#" xmlns:dc="http://purl.org/dc/elements/1.1/">
      <rdf:Description dc:format="image/svg+xml" dc:Label="1" dc:ContentProducer="001191330110MACRLGPT8B00000" dc:ProduceID="444853524" dc:ReservedCode1="YYsMrz8pS1HsyyZrUVq55DmMu86cTtJYbP4MfO9pS+8=" dc:ContentPropagator="001191330110MACRLGPT8B00000" dc:PropagateID="444853524" dc:ReservedCode2="YYsMrz8pS1HsyyZrUVq55DmMu86cTtJYbP4MfO9pS+8="/>
    </rdf:RDF>
  </metadata>
  <g transform="translate(0.000000,800.000000) scale(0.100000,-0.100000)" fill="#000000" stroke="none">
    <path d="M2030 5415 l0 -74 825 -823 825 -823 0 -382 0 -383 105 0 105 0 0 375 c0 353 -1 379 -21 437 -11 34 -33 80 -49 102 -15 23 -343 355 -729 739 l-700 697 1612 0 1612 0 -719 -717 c-665 -662 -721 -721 -750 -782 l-31 -66 -3 -393 -3 -392 106 0 105 0 0 379 0 380 825 825 825 824 0 76 0 76 -1970 0 -1970 0 0 -75z"/>
    <path d="M3254 5057 c-2 -8 -3 -56 -2 -108 l3 -94 745 0 745 0 0 105 0 105 -743 3 c-611 2 -743 0 -748 -11z"/>
    <path d="M3886 2754 c-99 -31 -178 -103 -225 -203 -23 -49 -26 -69 -26 -156 0 -89 3 -106 27 -155 34 -70 106 -143 173 -175 186 -92 416 -13 503 173 24 50 27 69 27 162 0 94 -3 111 -28 161 -33 68 -119 152 -184 181 -63 28 -197 34 -267 12z m190 -210 c47 -22 76 -67 82 -124 10 -103 -44 -170 -143 -178 -123 -10 -207 101 -164 215 33 87 139 128 225 87z"/>
  </g>
</svg>