<svg version="1.0" xmlns="http://www.w3.org/2000/svg" width="800.000000" height="800.000000" viewBox="0 0 800.000000 800.000000" preserveAspectRatio="xMidYMid meet">
  <metadata>
    <rdf:RDF xmlns:rdf="http://www.w3.org/1999/02/22-rdf-syntax-ns#" xmlns:rdfs="http://www.w3.org/2000/01/rdf-schema#" xmlns:dc="http://purl.org/dc/elements/1.1/">
      <rdf:Description dc:format="image/svg+xml" dc:Label="1" dc:ContentProducer="001191330110MACRLGPT8B00000" dc:ProduceID="444853030" dc:ReservedCode1="j9BUkjJ6FPloRtJdokkih43hSA+uXtSxKoKwejjDPrc=" dc:ContentPropagator="001191330110MACRLGPT8B00000" dc:PropagateID="444853030" dc:ReservedCode2="j9BUkjJ6FPloRtJdokkih43hSA+uXtSxKoKwejjDPrc="/>
    </rdf:RDF>
  </metadata>
  <g transform="translate(0.000000,800.000000) scale(0.100000,-0.100000)" fill="#000000" stroke="none">
    <path d="M2896 5890 c-310 -49 -586 -212 -764 -453 -148 -200 -224 -441 -218 -692 6 -235 69 -436 198 -630 34 -51 279 -301 898 -920 467 -467 854 -851 859 -853 5 -2 400 388 878 865 958 956 913 906 1003 1125 222 539 -3 1159 -519 1431 -333 176 -719 181 -1068 16 -90 -43 -199 -114 -250 -161 -35 -34 -33 -34 -109 27 -64 52 -208 134 -298 170 -141 55 -250 77 -406 80 -80 2 -172 0 -204 -5z m399 -289 c163 -43 310 -132 497 -301 42 -39 79 -70 83 -70 3 0 48 38 99 84 166 150 287 226 436 274 225 73 505 45 710 -70 203 -114 355 -307 416 -529 14 -48 18 -102 19 -219 0 -188 -13 -246 -90 -406 l-54 -112 -766 -763 c-422 -420 -767 -765 -769 -766 -1 -1 -346 341 -767 760 l-765 762 -51 100 c-138 271 -146 542 -24 797 116 242 334 408 622 473 92 21 299 14 404 -14z"/>
  </g>
</svg>