<svg version="1.0" xmlns="http://www.w3.org/2000/svg" width="800.000000" height="800.000000" viewBox="0 0 800.000000 800.000000" preserveAspectRatio="xMidYMid meet">
  <metadata>
    <rdf:RDF xmlns:rdf="http://www.w3.org/1999/02/22-rdf-syntax-ns#" xmlns:rdfs="http://www.w3.org/2000/01/rdf-schema#" xmlns:dc="http://purl.org/dc/elements/1.1/">
      <rdf:Description dc:format="image/svg+xml" dc:Label="1" dc:ContentProducer="001191330110MACRLGPT8B00000" dc:ProduceID="444852945" dc:ReservedCode1="dRdQP+vA+IvM90wnZlXRaVv5pjkQLUju+jZqJjjpNm0=" dc:ContentPropagator="001191330110MACRLGPT8B00000" dc:PropagateID="444852945" dc:ReservedCode2="dRdQP+vA+IvM90wnZlXRaVv5pjkQLUju+jZqJjjpNm0="/>
    </rdf:RDF>
  </metadata>
  <g transform="translate(0.000000,800.000000) scale(0.100000,-0.100000)" fill="#000000" stroke="none">
    <path d="M1698 6273 c-2 -5 -2 -999 0 -2210 l2 -2203 2235 0 2235 0 0 2210 0 2210 -2234 0 c-1229 0 -2236 -3 -2238 -7z m4212 -2203 l0 -1940 -1975 0 -1975 0 0 1940 0 1940 1975 0 1975 0 0 -1940z"/>
    <path d="M3103 5328 l-132 -133 15 -80 c29 -165 79 -293 170 -434 132 -203 301 -361 517 -486 l47 -27 0 155 0 154 -67 51 c-184 136 -339 349 -390 534 l-17 60 37 34 37 34 553 0 553 0 34 -35 33 -34 -18 -68 c-52 -193 -198 -386 -419 -556 l-36 -28 0 -144 c0 -169 -3 -165 98 -106 142 83 243 169 353 300 160 191 227 338 295 650 4 20 -17 45 -128 157 l-132 134 -636 0 -635 0 -132 -132z"/>
    <path d="M3562 4791 c2 -5 51 -68 111 -140 l107 -132 0 -507 -1 -507 -104 -110 -104 -110 296 -3 c163 -1 298 0 301 2 2 3 -7 15 -20 28 -14 13 -59 59 -102 104 l-77 81 0 518 c0 287 4 522 9 529 5 6 49 61 97 121 49 61 93 116 98 123 8 9 -55 12 -303 12 -184 0 -310 -4 -308 -9z"/>
    <path d="M3599 3951 c-243 -159 -402 -337 -514 -573 -50 -105 -92 -251 -101 -348 l-6 -65 126 -123 127 -122 642 0 642 0 125 125 c69 68 126 129 128 134 7 20 -31 211 -58 292 -57 172 -144 305 -304 464 -67 67 -152 144 -191 173 -63 47 -173 112 -189 112 -8 0 -8 -273 0 -294 3 -9 43 -45 88 -80 127 -99 246 -238 306 -356 22 -44 80 -207 80 -225 0 -2 -14 -20 -31 -40 l-31 -35 -568 0 -568 0 -27 31 c-29 36 -29 46 10 161 57 170 215 372 388 496 l47 34 0 154 c0 85 -4 154 -8 154 -4 0 -55 -31 -113 -69z"/>
  </g>
</svg>