<svg version="1.0" xmlns="http://www.w3.org/2000/svg" width="800.000000" height="800.000000" viewBox="0 0 800.000000 800.000000" preserveAspectRatio="xMidYMid meet">
  <metadata>
    <rdf:RDF xmlns:rdf="http://www.w3.org/1999/02/22-rdf-syntax-ns#" xmlns:rdfs="http://www.w3.org/2000/01/rdf-schema#" xmlns:dc="http://purl.org/dc/elements/1.1/">
      <rdf:Description dc:format="image/svg+xml" dc:Label="1" dc:ContentProducer="001191330110MACRLGPT8B00000" dc:ProduceID="444853031" dc:ReservedCode1="b9zJju8dSiWdWwEexy6mEiuC1OGy/Z1w8N3JvEydzaM=" dc:ContentPropagator="001191330110MACRLGPT8B00000" dc:PropagateID="444853031" dc:ReservedCode2="b9zJju8dSiWdWwEexy6mEiuC1OGy/Z1w8N3JvEydzaM="/>
    </rdf:RDF>
  </metadata>
  <g transform="translate(0.000000,800.000000) scale(0.100000,-0.100000)" fill="#000000" stroke="none">
    <path d="M1877 6133 c-4 -3 -7 -899 -7 -1990 l0 -1983 1160 0 1160 0 0 308 c0 279 -2 311 -18 342 -46 86 -157 89 -205 5 -8 -12 -14 -95 -17 -215 l-5 -195 -915 0 -915 0 -3 1743 -2 1742 920 0 920 0 0 -176 c0 -142 3 -183 16 -210 41 -86 168 -84 209 2 13 28 15 80 13 331 l-3 298 -1151 3 c-633 1 -1154 -1 -1157 -5z"/>
    <path d="M4807 5068 l-86 -93 346 -345 346 -345 -999 -5 c-771 -4 -1004 -8 -1021 -17 -63 -37 -84 -124 -42 -177 46 -59 -11 -56 1071 -56 l993 0 -344 -344 -344 -344 50 -59 c28 -32 67 -73 85 -91 l34 -32 503 497 502 498 -504 503 -504 503 -86 -93z"/>
    <path d="M2804 4276 c-63 -28 -98 -107 -74 -166 21 -50 74 -90 122 -90 140 0 192 187 68 250 -45 23 -73 25 -116 6z"/>
  </g>
</svg>