<svg version="1.0" xmlns="http://www.w3.org/2000/svg" width="800.000000" height="800.000000" viewBox="0 0 800.000000 800.000000" preserveAspectRatio="xMidYMid meet">
  <metadata>
    <rdf:RDF xmlns:rdf="http://www.w3.org/1999/02/22-rdf-syntax-ns#" xmlns:rdfs="http://www.w3.org/2000/01/rdf-schema#" xmlns:dc="http://purl.org/dc/elements/1.1/">
      <rdf:Description dc:format="image/svg+xml" dc:Label="1" dc:ContentProducer="001191330110MACRLGPT8B00000" dc:ProduceID="444853519" dc:ReservedCode1="8MO9PDjTsjCDkQGBoxtG3ITq0agTaASRpvHw7qkDc3E=" dc:ContentPropagator="001191330110MACRLGPT8B00000" dc:PropagateID="444853519" dc:ReservedCode2="8MO9PDjTsjCDkQGBoxtG3ITq0agTaASRpvHw7qkDc3E="/>
    </rdf:RDF>
  </metadata>
  <g transform="translate(0.000000,800.000000) scale(0.100000,-0.100000)" fill="#000000" stroke="none">
    <path d="M2170 4421 c-30 -10 -69 -25 -85 -33 -48 -25 -134 -123 -163 -185 -24 -51 -27 -70 -27 -158 0 -93 2 -105 33 -167 42 -85 109 -152 195 -194 90 -43 158 -51 245 -29 90 22 155 59 208 118 172 192 138 471 -76 607 -94 59 -223 76 -330 41z"/>
    <path d="M3835 4423 c-153 -55 -245 -160 -277 -317 -31 -158 66 -342 224 -422 280 -142 616 106 567 418 -21 132 -99 237 -223 298 -59 29 -81 34 -155 37 -64 3 -99 -1 -136 -14z"/>
    <path d="M5489 4417 c-115 -40 -195 -110 -239 -210 -106 -238 45 -510 309 -559 124 -23 256 25 351 129 163 178 140 438 -52 583 -65 49 -129 71 -223 76 -66 4 -92 1 -146 -19z"/>
  </g>
</svg>