<svg version="1.0" xmlns="http://www.w3.org/2000/svg" width="800.000000" height="800.000000" viewBox="0 0 800.000000 800.000000" preserveAspectRatio="xMidYMid meet">
  <metadata>
    <rdf:RDF xmlns:rdf="http://www.w3.org/1999/02/22-rdf-syntax-ns#" xmlns:rdfs="http://www.w3.org/2000/01/rdf-schema#" xmlns:dc="http://purl.org/dc/elements/1.1/">
      <rdf:Description dc:format="image/svg+xml" dc:Label="1" dc:ContentProducer="001191330110MACRLGPT8B00000" dc:ProduceID="444853374" dc:ReservedCode1="CxzXK4aa+EdsWw8fhD4pEVWUnqn1W/xyr8XNC3ZGQo4=" dc:ContentPropagator="001191330110MACRLGPT8B00000" dc:PropagateID="444853374" dc:ReservedCode2="CxzXK4aa+EdsWw8fhD4pEVWUnqn1W/xyr8XNC3ZGQo4="/>
    </rdf:RDF>
  </metadata>
  <g transform="translate(0.000000,800.000000) scale(0.100000,-0.100000)" fill="#000000" stroke="none">
    <path d="M3890 5486 l0 -213 -76 -12 c-418 -68 -760 -398 -857 -826 -19 -84 -21 -131 -24 -687 l-4 -598 -105 0 -104 0 0 -110 0 -110 1280 0 1280 0 0 110 0 110 -104 0 -105 0 -4 603 c-4 649 -5 655 -61 816 -111 318 -379 570 -708 665 -45 13 -107 27 -135 31 l-53 7 0 214 0 214 -110 0 -110 0 0 -214z m270 -437 c270 -49 520 -248 624 -498 65 -155 66 -162 66 -816 l0 -590 -850 3 -850 2 0 588 c0 668 1 673 84 847 56 115 107 183 204 268 197 172 458 243 722 196z"/>
    <path d="M3632 2622 c3 -82 8 -107 31 -155 136 -277 533 -282 672 -8 28 55 50 185 40 232 l-7 29 -103 0 -103 0 -4 -74 c-4 -83 -19 -114 -79 -154 -28 -20 -43 -23 -87 -20 -96 8 -143 61 -150 172 l-5 76 -104 0 -105 0 4 -98z"/>
  </g>
</svg>