<svg version="1.0" xmlns="http://www.w3.org/2000/svg" width="800.000000" height="800.000000" viewBox="0 0 800.000000 800.000000" preserveAspectRatio="xMidYMid meet">
  <metadata>
    <rdf:RDF xmlns:rdf="http://www.w3.org/1999/02/22-rdf-syntax-ns#" xmlns:rdfs="http://www.w3.org/2000/01/rdf-schema#" xmlns:dc="http://purl.org/dc/elements/1.1/">
      <rdf:Description dc:format="image/svg+xml" dc:Label="1" dc:ContentProducer="001191330110MACRLGPT8B00000" dc:ProduceID="444853033" dc:ReservedCode1="9n3kAeVM8XtX0xuJu60Alc3bCcp3AEoQ/CAx5CVL7Aw=" dc:ContentPropagator="001191330110MACRLGPT8B00000" dc:PropagateID="444853033" dc:ReservedCode2="9n3kAeVM8XtX0xuJu60Alc3bCcp3AEoQ/CAx5CVL7Aw="/>
    </rdf:RDF>
  </metadata>
  <g transform="translate(0.000000,800.000000) scale(0.100000,-0.100000)" fill="#000000" stroke="none">
    <path d="M2125 5673 c-226 -306 -331 -505 -371 -703 -100 -499 363 -1272 1081 -1806 517 -384 1135 -631 1750 -699 152 -17 435 -19 550 -4 103 14 252 54 344 93 273 115 512 377 611 671 31 93 54 220 48 274 l-3 34 -495 254 c-272 139 -520 262 -550 274 -68 26 -186 35 -265 20 -121 -23 -244 -100 -460 -290 -187 -163 -303 -191 -535 -124 -245 70 -441 228 -511 412 -29 77 -22 196 26 411 61 276 47 433 -54 586 -75 114 -95 129 -626 476 -387 252 -412 268 -423 268 -4 0 -57 -66 -117 -147z m226 -271 c13 -10 154 -101 313 -202 160 -102 311 -206 337 -231 57 -56 89 -134 89 -220 0 -35 -18 -140 -42 -247 -37 -164 -42 -202 -42 -307 0 -105 3 -130 27 -200 45 -128 102 -218 202 -320 200 -202 514 -337 790 -339 133 -1 192 12 310 69 74 35 120 69 255 185 186 160 253 200 338 200 49 0 83 -15 473 -212 480 -244 437 -203 370 -343 -97 -203 -279 -369 -475 -431 -143 -45 -258 -57 -481 -51 -642 17 -1312 267 -1860 692 -585 455 -1001 1132 -911 1484 18 72 77 202 132 294 45 74 135 197 144 197 4 0 18 -8 31 -18z"/>
  </g>
</svg>