<svg version="1.0" xmlns="http://www.w3.org/2000/svg" width="800.000000" height="800.000000" viewBox="0 0 800.000000 800.000000" preserveAspectRatio="xMidYMid meet">
  <metadata>
    <rdf:RDF xmlns:rdf="http://www.w3.org/1999/02/22-rdf-syntax-ns#" xmlns:rdfs="http://www.w3.org/2000/01/rdf-schema#" xmlns:dc="http://purl.org/dc/elements/1.1/">
      <rdf:Description dc:format="image/svg+xml" dc:Label="1" dc:ContentProducer="001191330110MACRLGPT8B00000" dc:ProduceID="444853683" dc:ReservedCode1="jOXdrwylzryuZzHeAqcwQzK0BNdcVVccuFgJqGT1NBA=" dc:ContentPropagator="001191330110MACRLGPT8B00000" dc:PropagateID="444853683" dc:ReservedCode2="jOXdrwylzryuZzHeAqcwQzK0BNdcVVccuFgJqGT1NBA="/>
    </rdf:RDF>
  </metadata>
  <g transform="translate(0.000000,800.000000) scale(0.100000,-0.100000)" fill="#000000" stroke="none">
    <path d="M3732 5903 c-19 -9 -41 -27 -49 -40 -9 -13 -39 -120 -68 -239 l-52 -216 -69 -23 c-38 -12 -92 -34 -121 -48 -29 -15 -58 -27 -65 -27 -7 0 -98 51 -203 114 -104 62 -199 116 -210 119 -38 12 -91 -29 -262 -204 -165 -168 -173 -178 -173 -215 0 -32 21 -77 115 -239 l116 -199 -36 -78 c-19 -43 -40 -100 -46 -126 l-12 -48 -196 -44 c-248 -55 -265 -61 -296 -115 -25 -41 -25 -45 -25 -274 0 -256 5 -282 60 -321 17 -12 107 -38 227 -66 109 -25 205 -47 213 -49 8 -3 23 -32 33 -66 10 -34 32 -89 48 -123 l30 -62 -34 -60 c-216 -372 -214 -368 -184 -421 25 -44 359 -373 380 -374 48 -3 68 6 217 95 85 51 173 103 194 115 l39 22 69 -31 c37 -17 96 -40 130 -49 l63 -18 51 -221 c34 -150 57 -229 70 -243 39 -44 69 -49 316 -49 254 0 280 5 320 60 10 14 38 112 63 225 25 110 48 207 50 215 3 9 27 21 57 28 29 6 86 28 128 48 l76 35 65 -37 c35 -20 124 -73 198 -117 133 -80 167 -91 208 -69 25 14 345 337 360 365 28 49 17 79 -102 283 l-116 198 35 70 c20 39 41 94 47 123 l12 52 126 30 c69 16 167 39 218 51 168 39 173 49 173 362 0 259 -5 284 -68 321 -17 10 -122 38 -234 63 -112 25 -206 49 -209 52 -3 4 -11 27 -18 52 -7 25 -28 78 -48 118 l-34 73 115 200 c159 272 164 235 -61 462 -98 98 -187 183 -198 189 -41 23 -76 9 -270 -108 l-195 -117 -77 35 c-43 20 -102 41 -131 49 -60 15 -49 -9 -107 231 -19 81 -35 153 -35 160 0 6 -9 31 -21 55 -38 78 -59 83 -331 83 -196 0 -238 -3 -266 -17z m422 -212 c3 -9 28 -113 56 -231 27 -118 53 -217 58 -221 4 -3 41 -14 82 -24 94 -21 198 -64 283 -115 l66 -40 202 121 201 122 104 -104 103 -104 -85 -140 c-47 -77 -101 -168 -120 -203 l-36 -62 46 -78 c39 -67 92 -207 123 -322 l9 -35 229 -51 230 -51 3 -154 2 -155 -127 -28 c-71 -15 -176 -39 -234 -52 l-106 -25 -26 -97 c-24 -92 -79 -223 -128 -302 l-21 -35 120 -200 121 -200 -103 -104 -103 -103 -109 64 c-60 36 -150 91 -201 121 l-92 57 -64 -40 c-86 -52 -174 -88 -282 -115 l-90 -23 -43 -178 c-23 -99 -48 -204 -55 -234 l-14 -55 -150 -3 -151 -3 -15 53 c-8 29 -17 64 -20 78 -3 14 -22 98 -43 188 -34 145 -40 162 -59 162 -65 0 -305 93 -384 150 l-29 20 -154 -93 c-84 -51 -175 -106 -201 -121 l-48 -28 -100 98 c-54 54 -99 103 -99 109 0 6 50 94 111 196 61 101 114 190 116 197 3 6 -13 43 -36 80 -46 77 -93 198 -112 291 -10 47 -19 66 -34 72 -11 5 -114 29 -230 54 -115 26 -213 49 -217 51 -5 3 -8 72 -8 154 l0 149 38 10 c20 5 91 21 157 35 282 61 285 62 285 90 0 68 84 287 141 367 10 15 19 32 19 37 0 6 -54 100 -119 209 l-120 198 104 104 103 104 203 -121 202 -121 41 25 c82 51 210 105 299 126 51 12 93 22 94 23 1 1 25 100 53 220 28 121 53 227 56 236 4 14 25 17 154 17 129 0 150 -3 154 -17z"/>
    <path d="M3864 4790 c-234 -43 -456 -206 -572 -421 -187 -346 -74 -804 253 -1026 155 -105 264 -137 455 -137 156 0 221 14 345 74 170 83 291 203 370 365 55 112 74 184 81 305 15 230 -59 431 -222 600 -152 158 -330 238 -544 245 -63 2 -138 0 -166 -5z m309 -230 c155 -48 299 -175 363 -318 27 -61 54 -182 54 -242 0 -66 -29 -190 -60 -255 -68 -141 -195 -251 -350 -302 -378 -124 -764 157 -764 557 0 167 52 290 174 412 58 59 96 86 153 114 137 65 291 77 430 34z"/>
  </g>
</svg>