<svg version="1.0" xmlns="http://www.w3.org/2000/svg" width="800.000000" height="800.000000" viewBox="0 0 800.000000 800.000000" preserveAspectRatio="xMidYMid meet">
  <metadata>
    <rdf:RDF xmlns:rdf="http://www.w3.org/1999/02/22-rdf-syntax-ns#" xmlns:rdfs="http://www.w3.org/2000/01/rdf-schema#" xmlns:dc="http://purl.org/dc/elements/1.1/">
      <rdf:Description dc:format="image/svg+xml" dc:Label="1" dc:ContentProducer="001191330110MACRLGPT8B00000" dc:ProduceID="444852944" dc:ReservedCode1="f2av52hd/Ev6T1fvFLWpQDqs8dpZqIFRJEnjEn59B1s=" dc:ContentPropagator="001191330110MACRLGPT8B00000" dc:PropagateID="444852944" dc:ReservedCode2="f2av52hd/Ev6T1fvFLWpQDqs8dpZqIFRJEnjEn59B1s="/>
    </rdf:RDF>
  </metadata>
  <g transform="translate(0.000000,800.000000) scale(0.100000,-0.100000)" fill="#000000" stroke="none">
    <path d="M3832 6030 c-49 -102 -137 -286 -195 -410 -58 -124 -127 -272 -154 -330 -28 -58 -85 -181 -128 -274 -44 -92 -84 -170 -89 -172 -6 -2 -99 -12 -206 -23 -107 -11 -337 -36 -510 -56 -173 -19 -333 -37 -355 -39 -356 -39 -451 -50 -455 -54 -3 -2 20 -27 51 -56 135 -123 912 -849 993 -927 l90 -86 -18 -79 c-10 -43 -35 -158 -57 -254 -21 -96 -54 -245 -74 -330 -19 -85 -72 -317 -116 -515 -45 -198 -84 -364 -87 -369 -3 -5 1 -7 9 -4 22 8 784 444 1209 690 52 30 115 65 139 77 l44 23 51 -28 c51 -27 261 -148 666 -382 399 -230 671 -384 674 -380 2 1 -12 71 -31 153 -18 83 -40 179 -48 215 -8 36 -35 155 -60 265 -25 110 -75 333 -110 495 -36 162 -73 323 -81 357 l-15 63 93 88 c162 153 509 476 878 817 101 93 178 171 170 172 -140 16 -858 94 -995 107 -82 9 -208 22 -280 30 -71 8 -159 18 -195 21 -36 4 -68 10 -71 13 -4 4 -50 99 -102 212 -134 289 -502 1072 -526 1117 l-19 38 -90 -185z m354 -1000 l201 -435 49 -7 c27 -4 144 -16 259 -28 116 -11 226 -23 245 -25 19 -2 71 -9 115 -14 44 -6 112 -13 150 -16 39 -4 81 -8 94 -10 12 -2 60 -7 105 -11 44 -3 84 -9 89 -13 4 -4 -98 -104 -225 -222 -128 -117 -269 -248 -313 -289 -44 -41 -125 -117 -181 -167 l-101 -93 48 -217 c27 -120 71 -319 99 -443 28 -124 62 -276 76 -338 14 -63 24 -115 22 -118 -3 -2 -186 102 -409 232 -550 322 -571 334 -586 334 -6 0 -49 -22 -95 -48 -126 -73 -413 -239 -503 -292 -318 -185 -397 -230 -402 -230 -3 0 -2 8 1 17 4 9 31 129 61 267 30 138 84 381 119 540 36 159 62 294 58 301 -4 7 -79 80 -168 162 -561 516 -653 604 -642 607 7 2 67 9 133 16 143 14 716 75 865 93 95 11 105 14 117 37 7 14 45 95 84 180 104 226 248 537 314 675 l57 120 31 -65 c17 -36 122 -261 233 -500z"/>
  </g>
</svg>