<svg version="1.0" xmlns="http://www.w3.org/2000/svg" width="800.000000" height="800.000000" viewBox="0 0 800.000000 800.000000" preserveAspectRatio="xMidYMid meet">
  <metadata>
    <rdf:RDF xmlns:rdf="http://www.w3.org/1999/02/22-rdf-syntax-ns#" xmlns:rdfs="http://www.w3.org/2000/01/rdf-schema#" xmlns:dc="http://purl.org/dc/elements/1.1/">
      <rdf:Description dc:format="image/svg+xml" dc:Label="1" dc:ContentProducer="001191330110MACRLGPT8B00000" dc:ProduceID="444853373" dc:ReservedCode1="YaK4bVfwfHJ9ciFxPhxedpkXAzpWm5K0Y5LuNHajG/8=" dc:ContentPropagator="001191330110MACRLGPT8B00000" dc:PropagateID="444853373" dc:ReservedCode2="YaK4bVfwfHJ9ciFxPhxedpkXAzpWm5K0Y5LuNHajG/8="/>
    </rdf:RDF>
  </metadata>
  <g transform="translate(0.000000,800.000000) scale(0.100000,-0.100000)" fill="#000000" stroke="none">
    <path d="M3830 5913 c-25 -2 -97 -13 -160 -24 -618 -108 -1129 -496 -1400 -1061 -256 -536 -251 -1148 16 -1687 289 -586 859 -978 1526 -1050 611 -67 1249 192 1655 671 179 211 322 490 392 763 191 748 -84 1538 -697 2003 -377 287 -850 423 -1332 385z m320 -214 c362 -33 669 -161 950 -395 528 -439 736 -1165 524 -1826 -167 -523 -576 -932 -1100 -1101 -342 -110 -712 -110 -1053 2 -518 170 -917 568 -1089 1086 -229 687 3 1448 578 1890 247 190 563 313 885 344 119 12 178 12 305 0z"/>
    <path d="M4270 4045 l-655 -655 -290 290 -290 290 -72 -72 c-40 -40 -73 -75 -73 -78 0 -3 163 -168 362 -368 l363 -362 732 732 733 733 -72 72 c-40 40 -75 73 -78 73 -3 0 -300 -295 -660 -655z"/>
  </g>
</svg>