<svg version="1.0" xmlns="http://www.w3.org/2000/svg" width="800.000000" height="800.000000" viewBox="0 0 800.000000 800.000000" preserveAspectRatio="xMidYMid meet">
  <metadata>
    <rdf:RDF xmlns:rdf="http://www.w3.org/1999/02/22-rdf-syntax-ns#" xmlns:rdfs="http://www.w3.org/2000/01/rdf-schema#" xmlns:dc="http://purl.org/dc/elements/1.1/">
      <rdf:Description dc:format="image/svg+xml" dc:Label="1" dc:ContentProducer="001191330110MACRLGPT8B00000" dc:ProduceID="444852996" dc:ReservedCode1="neSoqFu0oK2z72BBZvL4rSEDCZ60dWi34ZKBMolSMMI=" dc:ContentPropagator="001191330110MACRLGPT8B00000" dc:PropagateID="444852996" dc:ReservedCode2="neSoqFu0oK2z72BBZvL4rSEDCZ60dWi34ZKBMolSMMI="/>
    </rdf:RDF>
  </metadata>
  <g transform="translate(0.000000,800.000000) scale(0.100000,-0.100000)" fill="#000000" stroke="none">
    <path d="M3098 5870 c-54 -48 -128 -138 -128 -156 0 -5 454 -8 1030 -6 l1030 2 -16 33 c-9 17 -50 65 -90 105 l-74 72 -848 0 -848 0 -56 -50z"/>
    <path d="M2290 5385 l0 -105 1710 0 1710 0 0 105 0 105 -1710 0 -1710 0 0 -105z"/>
    <path d="M2527 5063 c-2 -5 2 -64 9 -133 20 -193 89 -945 134 -1450 22 -250 47 -525 55 -610 8 -85 21 -219 29 -297 15 -162 31 -200 108 -250 l42 -28 1090 0 1091 0 41 22 c52 28 90 73 104 121 5 20 21 163 35 317 14 154 39 424 55 600 29 308 71 773 125 1375 14 157 26 296 28 310 l2 25 -107 3 c-83 2 -108 0 -108 -10 0 -12 -18 -209 -70 -798 -12 -124 -25 -270 -30 -325 -5 -55 -23 -248 -40 -430 -16 -181 -37 -404 -45 -495 -25 -287 -46 -494 -49 -497 -4 -4 -2048 -4 -2052 0 -2 2 -62 647 -129 1397 -14 157 -43 479 -65 715 -22 237 -40 433 -40 438 0 4 -47 7 -104 7 -58 0 -107 -3 -109 -7z"/>
    <path d="M3144 4593 c3 -27 13 -145 21 -263 9 -118 27 -352 41 -519 13 -167 31 -394 39 -505 8 -110 18 -216 20 -233 l6 -33 99 0 100 0 0 38 c0 20 -4 84 -10 142 -5 58 -16 200 -25 315 -9 116 -22 298 -30 405 -8 107 -22 290 -30 405 -8 116 -17 229 -21 253 l-5 42 -106 0 -105 0 6 -47z"/>
    <path d="M3890 3840 l0 -800 110 0 110 0 0 800 0 800 -110 0 -110 0 0 -800z"/>
    <path d="M4646 4588 c-3 -29 -13 -145 -21 -258 -9 -113 -22 -290 -30 -395 -8 -104 -21 -291 -30 -415 -9 -124 -20 -272 -25 -330 -16 -167 -27 -150 93 -150 l103 0 32 423 c53 691 81 1048 88 1115 l6 62 -105 0 -106 0 -5 -52z"/>
  </g>
</svg>