<svg version="1.0" xmlns="http://www.w3.org/2000/svg" width="800.000000" height="800.000000" viewBox="0 0 800.000000 800.000000" preserveAspectRatio="xMidYMid meet">
  <metadata>
    <rdf:RDF xmlns:rdf="http://www.w3.org/1999/02/22-rdf-syntax-ns#" xmlns:rdfs="http://www.w3.org/2000/01/rdf-schema#" xmlns:dc="http://purl.org/dc/elements/1.1/">
      <rdf:Description dc:format="image/svg+xml" dc:Label="1" dc:ContentProducer="001191330110MACRLGPT8B00000" dc:ProduceID="444853452" dc:ReservedCode1="Z2YsKIFuHL6YLpRBoHOVJGZ5cWUEBiPe1XfOVutSjmU=" dc:ContentPropagator="001191330110MACRLGPT8B00000" dc:PropagateID="444853452" dc:ReservedCode2="Z2YsKIFuHL6YLpRBoHOVJGZ5cWUEBiPe1XfOVutSjmU="/>
    </rdf:RDF>
  </metadata>
  <g transform="translate(0.000000,800.000000) scale(0.100000,-0.100000)" fill="#000000" stroke="none">
    <path d="M2525 5901 c-50 -22 -101 -79 -115 -128 -8 -27 -10 -601 -8 -1978 l3 -1940 21 -40 c11 -22 40 -53 63 -70 l43 -30 1619 -3 c1578 -2 1620 -2 1657 17 47 24 77 56 97 103 13 33 15 231 15 1800 0 1700 -1 1764 -19 1804 -22 49 -70 88 -126 103 -22 6 -117 11 -211 11 l-171 0 -5 113 c-5 118 -21 169 -66 210 -52 47 -15 46 -1427 46 -1265 1 -1332 0 -1370 -18z m2648 -1794 l2 -1597 -1282 0 -1283 0 0 1593 c0 877 3 1597 7 1600 3 4 579 6 1280 5 l1273 -3 3 -1598z m537 -267 l0 -1490 -184 0 c-101 0 -193 -3 -203 -7 -12 -5 -8 5 14 30 18 20 37 54 43 76 7 27 9 486 8 1460 l-3 1421 163 0 162 0 0 -1490z m-2903 -1570 c7 -36 56 -96 96 -118 30 -16 126 -17 1417 -20 l1385 -2 3 -105 3 -105 -1551 0 -1550 0 0 183 c0 101 3 187 7 191 4 4 47 6 96 5 88 -2 88 -2 94 -29z"/>
  </g>
</svg>