<svg version="1.0" xmlns="http://www.w3.org/2000/svg" width="800.000000" height="800.000000" viewBox="0 0 800.000000 800.000000" preserveAspectRatio="xMidYMid meet">
  <metadata>
    <rdf:RDF xmlns:rdf="http://www.w3.org/1999/02/22-rdf-syntax-ns#" xmlns:rdfs="http://www.w3.org/2000/01/rdf-schema#" xmlns:dc="http://purl.org/dc/elements/1.1/">
      <rdf:Description dc:format="image/svg+xml" dc:Label="1" dc:ContentProducer="001191330110MACRLGPT8B00000" dc:ProduceID="444852994" dc:ReservedCode1="n5m4EyXGgwYYWMdi2RJh4P2ftl/9gZ/GyZVb63D4cjw=" dc:ContentPropagator="001191330110MACRLGPT8B00000" dc:PropagateID="444852994" dc:ReservedCode2="n5m4EyXGgwYYWMdi2RJh4P2ftl/9gZ/GyZVb63D4cjw="/>
    </rdf:RDF>
  </metadata>
  <g transform="translate(0.000000,800.000000) scale(0.100000,-0.100000)" fill="#000000" stroke="none">
    <path d="M1870 4399 l0 -1491 193 2 c105 1 240 2 299 1 l107 -1 3 -268 3 -269 28 -36 c34 -45 92 -65 145 -51 21 6 132 73 247 149 116 75 237 155 270 176 33 21 119 77 190 123 72 47 162 106 202 131 l72 46 1180 -1 1181 0 0 1490 0 1490 -2060 0 -2060 0 0 -1491z m3837 9 l-2 -1183 -1080 -5 -1080 -5 -150 -98 c-83 -54 -258 -168 -390 -253 l-240 -155 -3 256 -2 255 -300 0 -300 0 0 1185 0 1185 1775 0 1775 0 -3 -1182z"/>
  </g>
</svg>