<svg version="1.0" xmlns="http://www.w3.org/2000/svg" width="800.000000" height="800.000000" viewBox="0 0 800.000000 800.000000" preserveAspectRatio="xMidYMid meet">
  <metadata>
    <rdf:RDF xmlns:rdf="http://www.w3.org/1999/02/22-rdf-syntax-ns#" xmlns:rdfs="http://www.w3.org/2000/01/rdf-schema#" xmlns:dc="http://purl.org/dc/elements/1.1/">
      <rdf:Description dc:format="image/svg+xml" dc:Label="1" dc:ContentProducer="001191330110MACRLGPT8B00000" dc:ProduceID="444853643" dc:ReservedCode1="MxanuLJd8pIE83D5SseTjuOhuGZUxkW6jiEiYnU4wa0=" dc:ContentPropagator="001191330110MACRLGPT8B00000" dc:PropagateID="444853643" dc:ReservedCode2="MxanuLJd8pIE83D5SseTjuOhuGZUxkW6jiEiYnU4wa0="/>
    </rdf:RDF>
  </metadata>
  <g transform="translate(0.000000,800.000000) scale(0.100000,-0.100000)" fill="#000000" stroke="none">
    <path d="M1820 4150 l0 -1720 2070 0 2070 0 0 1720 0 1720 -2070 0 -2070 0 0 -1720z m3860 413 l-1 -1038 -25 30 c-13 17 -53 70 -87 118 -352 499 -395 553 -491 622 -201 143 -420 172 -647 84 -89 -34 -44 -3 -1164 -799 -333 -237 -838 -594 -950 -674 -55 -38 -126 -89 -157 -113 -31 -24 -59 -43 -62 -43 -3 0 -6 641 -6 1425 l0 1425 1795 0 1795 0 0 -1037z m-872 -427 c77 -27 150 -85 211 -165 54 -72 142 -194 508 -713 l153 -216 0 -171 0 -171 -1592 0 -1592 0 32 23 c17 12 64 45 104 73 40 28 269 191 508 361 239 170 545 387 680 483 135 95 331 235 437 311 105 76 211 148 235 160 93 48 222 58 316 25z"/>
    <path d="M2485 5294 c-81 -44 -128 -119 -128 -204 0 -131 124 -245 246 -226 207 33 269 299 95 413 -52 35 -164 44 -213 17z"/>
  </g>
</svg>