<svg version="1.0" xmlns="http://www.w3.org/2000/svg" width="800.000000" height="800.000000" viewBox="0 0 800.000000 800.000000" preserveAspectRatio="xMidYMid meet">
  <metadata>
    <rdf:RDF xmlns:rdf="http://www.w3.org/1999/02/22-rdf-syntax-ns#" xmlns:rdfs="http://www.w3.org/2000/01/rdf-schema#" xmlns:dc="http://purl.org/dc/elements/1.1/">
      <rdf:Description dc:format="image/svg+xml" dc:Label="1" dc:ContentProducer="001191330110MACRLGPT8B00000" dc:ProduceID="444853367" dc:ReservedCode1="MyG+sTT6ZOr88x4vdjO3gQ1jKtPY4U5Eer3wognzjhQ=" dc:ContentPropagator="001191330110MACRLGPT8B00000" dc:PropagateID="444853367" dc:ReservedCode2="MyG+sTT6ZOr88x4vdjO3gQ1jKtPY4U5Eer3wognzjhQ="/>
    </rdf:RDF>
  </metadata>
  <g transform="translate(0.000000,800.000000) scale(0.100000,-0.100000)" fill="#000000" stroke="none">
    <path d="M3836 6038 c-3 -46 -10 -234 -16 -418 -5 -184 -12 -392 -15 -461 l-5 -127 132 -4 c73 -3 134 -4 135 -4 1 1 7 132 12 291 6 160 13 333 16 385 2 52 7 165 11 251 l6 156 -69 6 c-37 4 -98 7 -135 7 l-66 0 -6 -82z"/>
    <path d="M2958 5889 c-65 -32 -118 -62 -118 -65 0 -4 44 -90 97 -193 53 -102 163 -314 244 -471 81 -156 152 -286 156 -287 5 -2 45 17 88 42 44 25 94 50 112 56 18 6 33 14 33 19 0 15 -478 954 -487 957 -4 1 -61 -25 -125 -58z"/>
    <path d="M4836 5862 c-12 -20 -63 -102 -113 -182 -49 -80 -159 -257 -244 -395 -225 -362 -204 -324 -182 -332 33 -12 148 -85 176 -111 l28 -27 19 25 c15 20 74 111 163 254 144 231 272 432 356 560 28 44 50 85 47 91 -2 6 -54 44 -115 83 l-111 72 -24 -38z"/>
    <path d="M2160 5155 c-41 -64 -70 -121 -67 -130 4 -8 23 -23 44 -34 21 -10 155 -90 298 -176 424 -257 576 -347 579 -344 2 2 14 24 26 49 12 25 42 73 66 107 24 34 44 64 44 66 0 7 -173 117 -802 510 -58 37 -109 67 -111 67 -3 0 -38 -52 -77 -115z"/>
    <path d="M5585 5163 c-159 -83 -906 -491 -914 -498 -2 -2 13 -31 33 -63 20 -33 48 -85 62 -116 l25 -56 37 16 c20 8 129 63 242 122 113 60 311 161 440 226 129 65 239 122 244 126 8 8 -121 260 -133 260 -3 -1 -19 -8 -36 -17z"/>
    <path d="M1862 4109 l3 -144 543 -3 542 -2 0 140 0 140 -192 0 c-106 0 -352 3 -546 7 l-353 6 3 -144z"/>
    <path d="M4838 4064 c-3 -71 -5 -130 -4 -130 2 -3 157 -14 276 -19 69 -3 166 -8 215 -10 203 -11 587 -26 590 -23 2 2 6 66 10 144 l7 141 -198 7 c-110 3 -355 9 -545 12 l-346 7 -5 -129z"/>
    <path d="M2955 3686 c-33 -18 -208 -117 -390 -218 -181 -102 -365 -204 -407 -228 -43 -23 -78 -46 -78 -52 0 -16 124 -230 136 -235 6 -2 37 11 70 30 158 90 690 396 772 444 50 30 92 59 92 65 0 6 -16 32 -35 58 -19 26 -48 75 -65 109 -17 33 -32 61 -33 61 -1 0 -29 -15 -62 -34z"/>
    <path d="M4725 3640 c-20 -33 -54 -82 -76 -110 l-39 -49 54 -40 c93 -69 829 -554 845 -557 11 -2 38 31 84 101 37 58 70 110 72 117 3 8 -80 67 -213 152 -222 143 -308 199 -537 347 -71 47 -135 88 -142 92 -7 5 -25 -15 -48 -53z"/>
    <path d="M3257 3237 c-36 -56 -95 -151 -132 -212 -295 -480 -375 -613 -375 -621 0 -10 206 -127 231 -132 12 -2 43 43 111 160 52 90 153 262 225 383 236 400 232 394 220 402 -7 4 -33 18 -59 29 -25 12 -71 38 -101 58 l-56 35 -64 -102z"/>
    <path d="M4308 3261 l-107 -56 48 -115 c64 -152 367 -828 387 -861 8 -14 24 -9 132 39 67 30 122 61 122 68 0 7 -31 79 -70 161 -38 81 -138 299 -223 483 -89 192 -160 336 -168 336 -8 1 -62 -24 -121 -55z"/>
    <path d="M3749 3169 c-8 -26 -82 -1079 -77 -1084 2 -2 65 -7 141 -11 l137 -7 0 44 c0 52 18 389 24 469 3 30 10 152 16 270 6 118 12 236 14 263 l3 47 -76 0 c-42 0 -100 3 -128 6 -29 4 -54 5 -54 3z"/>
  </g>
</svg>