<svg version="1.0" xmlns="http://www.w3.org/2000/svg" width="800.000000" height="800.000000" viewBox="0 0 800.000000 800.000000" preserveAspectRatio="xMidYMid meet">
  <metadata>
    <rdf:RDF xmlns:rdf="http://www.w3.org/1999/02/22-rdf-syntax-ns#" xmlns:rdfs="http://www.w3.org/2000/01/rdf-schema#" xmlns:dc="http://purl.org/dc/elements/1.1/">
      <rdf:Description dc:format="image/svg+xml" dc:Label="1" dc:ContentProducer="001191330110MACRLGPT8B00000" dc:ProduceID="444854700" dc:ReservedCode1="Yzjaki/ibS4IO1DVZ8KWWicrrXYzrCbpbDs8iIzxPSM=" dc:ContentPropagator="001191330110MACRLGPT8B00000" dc:PropagateID="444854700" dc:ReservedCode2="Yzjaki/ibS4IO1DVZ8KWWicrrXYzrCbpbDs8iIzxPSM="/>
    </rdf:RDF>
  </metadata>
  <g transform="translate(0.000000,800.000000) scale(0.100000,-0.100000)" fill="#000000" stroke="none">
    <path d="M4217 6112 l-47 -48 0 -1947 0 -1947 115 0 115 0 0 1777 0 1777 68 -65 c37 -36 173 -162 302 -280 129 -117 298 -272 375 -344 78 -71 231 -212 342 -312 l201 -182 82 86 c78 82 81 86 63 103 -206 192 -358 332 -593 545 -157 142 -314 286 -350 319 -159 149 -612 561 -618 564 -4 1 -29 -19 -55 -46z"/>
    <path d="M3270 4345 c0 -971 -3 -1765 -7 -1765 -5 0 -58 46 -119 103 -329 303 -639 589 -877 810 l-266 248 -87 -84 -86 -83 188 -175 c104 -96 252 -232 329 -303 77 -71 174 -161 215 -200 41 -39 129 -121 195 -182 66 -61 226 -209 355 -329 129 -119 245 -224 257 -232 27 -18 46 -9 96 47 l37 40 0 1935 0 1935 -115 0 -115 0 0 -1765z"/>
  </g>
</svg>