<svg version="1.0" xmlns="http://www.w3.org/2000/svg" width="800.000000" height="800.000000" viewBox="0 0 800.000000 800.000000" preserveAspectRatio="xMidYMid meet">
  <metadata>
    <rdf:RDF xmlns:rdf="http://www.w3.org/1999/02/22-rdf-syntax-ns#" xmlns:rdfs="http://www.w3.org/2000/01/rdf-schema#" xmlns:dc="http://purl.org/dc/elements/1.1/">
      <rdf:Description dc:format="image/svg+xml" dc:Label="1" dc:ContentProducer="001191330110MACRLGPT8B00000" dc:ProduceID="444853525" dc:ReservedCode1="vyEljie/J8Qmx7VteYyAUYTmxZQAC4ShnQO65ZsCnnM=" dc:ContentPropagator="001191330110MACRLGPT8B00000" dc:PropagateID="444853525" dc:ReservedCode2="vyEljie/J8Qmx7VteYyAUYTmxZQAC4ShnQO65ZsCnnM="/>
    </rdf:RDF>
  </metadata>
  <g transform="translate(0.000000,800.000000) scale(0.100000,-0.100000)" fill="#000000" stroke="none">
    <path d="M3560 4885 l-435 -435 75 -75 75 -75 307 307 c170 169 308 303 308 298 0 -6 0 -511 0 -1122 l0 -1113 110 0 110 0 2 1117 3 1117 305 -301 305 -301 76 72 76 71 -436 438 c-240 240 -438 437 -441 437 -3 0 -201 -196 -440 -435z"/>
  </g>
</svg>