<svg version="1.0" xmlns="http://www.w3.org/2000/svg" width="800.000000" height="800.000000" viewBox="0 0 800.000000 800.000000" preserveAspectRatio="xMidYMid meet">
  <metadata>
    <rdf:RDF xmlns:rdf="http://www.w3.org/1999/02/22-rdf-syntax-ns#" xmlns:rdfs="http://www.w3.org/2000/01/rdf-schema#" xmlns:dc="http://purl.org/dc/elements/1.1/">
      <rdf:Description dc:format="image/svg+xml" dc:Label="1" dc:ContentProducer="001191330110MACRLGPT8B00000" dc:ProduceID="444853678" dc:ReservedCode1="iOdeCNT734v2g6vqYKwbOhszimFSQoBNrtu8SLr66JM=" dc:ContentPropagator="001191330110MACRLGPT8B00000" dc:PropagateID="444853678" dc:ReservedCode2="iOdeCNT734v2g6vqYKwbOhszimFSQoBNrtu8SLr66JM="/>
    </rdf:RDF>
  </metadata>
  <g transform="translate(0.000000,800.000000) scale(0.100000,-0.100000)" fill="#000000" stroke="none">
    <path d="M3716 5644 c-303 -47 -611 -229 -790 -468 -103 -137 -189 -315 -223 -462 l-16 -71 -66 -17 c-83 -22 -228 -90 -312 -146 -35 -24 -109 -89 -164 -144 -153 -155 -242 -322 -284 -533 -31 -149 -25 -308 18 -475 88 -342 356 -629 695 -743 170 -57 176 -58 684 -62 l472 -4 1 168 c0 147 0 756 -1 791 0 9 -32 12 -125 12 -80 0 -125 4 -125 10 0 14 385 550 394 550 2 0 55 -71 117 -157 62 -87 151 -209 196 -271 46 -62 81 -117 78 -122 -4 -6 -60 -10 -126 -10 l-119 0 0 -485 0 -485 463 0 c504 0 593 7 747 56 143 45 299 133 412 234 112 98 224 267 284 427 63 166 80 364 49 549 -20 116 -38 170 -91 279 -133 270 -399 489 -687 567 -38 10 -49 17 -53 38 -51 235 -180 472 -343 628 -106 102 -188 159 -326 228 -240 119 -497 159 -759 118z m391 -269 c37 -8 97 -24 133 -36 362 -120 630 -464 657 -844 l6 -83 68 -6 c355 -35 664 -302 734 -634 22 -99 19 -260 -5 -362 -76 -315 -354 -562 -685 -610 -38 -5 -233 -10 -432 -10 l-363 0 0 260 0 260 215 0 c118 0 215 3 215 8 0 4 -67 99 -149 212 -82 113 -209 288 -282 390 -73 102 -181 251 -240 331 l-106 147 -199 -277 c-109 -152 -261 -363 -339 -469 -188 -259 -235 -326 -235 -334 0 -5 99 -8 220 -8 l220 0 0 -260 0 -260 -327 0 c-359 0 -427 6 -550 49 -212 73 -399 244 -489 448 -65 144 -81 345 -40 505 85 335 367 570 741 616 l60 7 7 90 c9 101 43 233 87 329 120 266 375 468 676 536 101 23 306 26 402 5z"/>
  </g>
</svg>